<?xml version="1.0" encoding="UTF-8" standalone="no"?>
<!-- Created with Inkscape (http://www.inkscape.org/) -->

<svg
   width="1476.1525mm"
   height="410.09329mm"
   viewBox="0 0 1476.1525 410.09329"
   version="1.1"
   id="svg1"
   xml:space="preserve"
   sodipodi:docname="nu_logo3.svg"
   inkscape:export-filename="/Users/admin/Desktop/logo.png"
   inkscape:export-xdpi="96"
   inkscape:export-ydpi="96"
   inkscape:version="1.4.2 (ebf0e940, 2025-05-08)"
   xmlns:inkscape="http://www.inkscape.org/namespaces/inkscape"
   xmlns:sodipodi="http://sodipodi.sourceforge.net/DTD/sodipodi-0.dtd"
   xmlns="http://www.w3.org/2000/svg"
   xmlns:svg="http://www.w3.org/2000/svg"><sodipodi:namedview
     id="namedview1"
     pagecolor="#ffffff"
     bordercolor="#000000"
     borderopacity="0.25"
     inkscape:showpageshadow="2"
     inkscape:pageopacity="0.0"
     inkscape:pagecheckerboard="0"
     inkscape:deskcolor="#d1d1d1"
     inkscape:document-units="mm"
     showguides="true"
     showgrid="false"
     inkscape:zoom="0.18623177"
     inkscape:cx="2357.2777"
     inkscape:cy="2018.9895"
     inkscape:current-layer="svg1"><inkscape:grid
       id="grid13"
       units="mm"
       originx="-21.249867"
       originy="-76.62169"
       spacingx="0.99999998"
       spacingy="0.99999996"
       empcolor="#0099e5"
       empopacity="0.30196078"
       color="#0099e5"
       opacity="0.14901961"
       empspacing="5"
       enabled="true"
       visible="false" /><inkscape:page
       x="2.6897408e-14"
       y="9.2731837e-15"
       width="1476.1526"
       height="410.09329"
       id="page2"
       margin="0"
       bleed="0" /></sodipodi:namedview><defs
     id="defs1" /><g
     id="g7"
     transform="matrix(0.95161462,0,0,0.95161462,209.36063,-56.117961)"
     style="display:inline;fill:#1ed760;fill-opacity:1"><path
       id="text3"
       style="font-size:268.976px;font-family:'Gotham Medium';-inkscape-font-specification:'Gotham Medium, ';letter-spacing:-17.6014px;fill:#1ed760;fill-opacity:1;stroke-width:1.40092"
       d="m 926.15738,195.68945 c -4.48258,-0.0843 -7.99246,0.0876 -14.09073,0.0876 -14.67394,0 -26.0132,3.92318 -34.01717,11.76945 -8.19454,8.03309 -12.29175,20.26969 -12.29175,36.7095 v 10.64842 h -19.15201 v 28.30259 h 19.15201 v 118.81497 h 34.58868 V 283.20705 h 39.44812 v -0.0134 h 12.75246 v 77.24608 c 0,7.88996 0.98651,14.52477 2.959,19.90429 1.97249,5.20021 4.75148,9.41437 8.33783,12.64208 3.76567,3.22771 8.15884,5.55884 13.17972,6.99338 5.02089,1.43454 10.49055,2.15173 16.40802,2.15173 6.09679,0 11.47594,-0.62768 16.13814,-1.8829 4.6623,-1.25523 9.0554,-3.04874 13.1797,-5.37986 v -26.6283 c -6.4554,3.22771 -13.1793,4.84165 -20.1727,4.84165 -5.55876,0 -9.86255,-1.34486 -12.91094,-4.03462 -3.04839,-2.86908 -4.57259,-7.44183 -4.57259,-13.71794 v -72.13559 h 38.19433 v -27.97354 l -17.4534,-0.28712 h -19.15256 v -10.64842 c 0,-9.74295 -1.76488,-26.05896 -12.29175,-36.70949 -8.00398,-7.84628 -19.34267,-11.76945 -34.01663,-11.76945 -6.09832,0 -9.60876,-0.17196 -14.09128,-0.0876 -0.0105,2e-4 -0.0217,0.002 -0.0335,0.006 -0.0341,-0.0223 -0.0646,-0.0339 -0.091,-0.0344 z m -0.54572,28.95586 c 14.27608,0.71651 24.14854,5.32469 26.93533,20.02584 v 10.54896 l -52.77209,-0.0355 v -8.12624 c 0,-14.72407 12.70434,-22.1951 25.83676,-22.41303 z"
       transform="scale(0.99009969,1.0099993)"
       sodipodi:nodetypes="csssccccccccccsccsssccscscccccsssscccsccscss" /><path
       d="m 1134.3408,317.23248 c -0.5661,-5.47183 -1.7925,-10.5663 -3.6793,-15.2834 -1.8869,-4.90579 -4.4341,-9.05684 -7.6417,-12.45315 -3.2077,-3.58499 -7.0757,-6.41525 -11.6041,-8.49078 -4.3397,-2.07552 -9.3399,-3.11328 -15.0004,-3.11328 -10.5663,0 -19.3401,3.67934 -26.3214,11.03801 -6.7926,7.16999 -10.9436,16.60419 -12.4531,28.3026 z m -33.9631,88.58714 c -10.755,0 -20.8496,-1.88684 -30.2838,-5.66052 -9.2455,-3.77368 -17.3589,-9.05683 -24.3402,-15.84945 -6.7927,-6.79263 -12.1702,-14.90604 -16.1325,-24.34024 -3.9624,-9.62289 -5.9436,-20.18919 -5.9436,-31.69891 v -0.56605 c 0,-10.75499 1.7925,-20.84959 5.3775,-30.28379 3.585,-9.4342 8.5851,-17.64195 15.0004,-24.62326 6.6039,-7.16999 14.34,-12.73617 23.2082,-16.69853 8.8681,-4.15105 18.6797,-6.22658 29.4347,-6.22658 11.8871,0 22.2647,2.16987 31.1328,6.5096 9.0569,4.33973 16.5099,10.18894 22.3591,17.54761 6.0379,7.35868 10.5663,15.9438 13.5852,25.75537 3.0189,9.62289 4.5284,19.81182 4.5284,30.56681 0,1.50947 -0.094,3.11329 -0.283,4.81144 0,1.50947 -0.094,3.11329 -0.283,4.81144 h -109.8141 c 1.8869,12.26446 6.6983,21.69866 14.4343,28.3026 7.9247,6.41526 17.4533,9.62289 28.5856,9.62289 8.4908,0 15.8495,-1.50947 22.0761,-4.52842 6.2265,-3.01894 12.3588,-7.45301 18.3967,-13.30222 l 20.0948,17.83064 c -7.17,8.49078 -15.7551,15.2834 -25.7554,20.37787 -9.8115,5.09447 -21.6043,7.6417 -35.3782,7.6417 z m 153.8421,-30.00075 c 5.6605,0 11.1323,-1.13211 16.4155,-3.39632 5.2831,-2.26421 9.9059,-5.47183 13.8682,-9.62288 3.9624,-4.33973 7.0757,-9.4342 9.3399,-15.2834 2.4529,-5.84921 3.6793,-12.35881 3.6793,-19.5288 v -0.56605 c 0,-7.16999 -1.2264,-13.67959 -3.6793,-19.5288 -2.2642,-6.03789 -5.3775,-11.13235 -9.3399,-15.2834 -3.9623,-4.15105 -8.5851,-7.35867 -13.8682,-9.62288 -5.2832,-2.26421 -10.755,-3.39632 -16.4155,-3.39632 -5.8493,0 -11.4155,1.13211 -16.6986,3.39632 -5.0945,2.07552 -9.6229,5.1888 -13.5852,9.33985 -3.9624,4.15105 -7.0757,9.24552 -9.3399,15.28341 -2.2642,5.84921 -3.3963,12.45315 -3.3963,19.81182 v 0.56605 c 0,7.16999 1.1321,13.77393 3.3963,19.81182 2.2642,5.84921 5.3775,10.84933 9.3399,15.00038 3.9623,4.15105 8.4907,7.35867 13.5852,9.62288 5.2831,2.26421 10.8493,3.39632 16.6986,3.39632 z m -8.2078,29.71773 c -8.8681,0 -17.4533,-1.69816 -25.7554,-5.09447 -8.3021,-3.39631 -15.6607,-8.39644 -22.076,-15.00038 -6.4153,-6.60394 -11.6041,-14.71735 -15.5664,-24.34024 -3.9624,-9.62288 -5.9436,-20.66089 -5.9436,-33.11404 v -0.56605 c 0,-12.45315 1.8868,-23.49116 5.6605,-33.11404 3.9624,-9.62289 9.1512,-17.7363 15.5665,-24.34024 6.4153,-6.60394 13.7739,-11.60407 22.076,-15.00038 8.4908,-3.39631 17.1703,-5.09447 26.0384,-5.09447 12.2645,0 22.4534,2.64158 30.5668,7.92473 8.1134,5.28315 14.906,11.41538 20.3779,18.39669 v -80.37938 h 34.2461 v 210.09235 h -34.2461 v -28.38966 c -5.4719,7.73605 -12.3588,14.33999 -20.6609,19.81182 -8.1134,5.47184 -18.208,8.20776 -30.2838,8.20776 z"
       id="text5"
       style="font-size:283.026px;font-family:'Gotham Medium';-inkscape-font-specification:'Gotham Medium, ';letter-spacing:-18.5208px;fill:#1ed760;fill-opacity:1;stroke-width:1.47409"
       aria-label="ed" /><path
       style="font-size:283.026px;font-family:'Gotham Medium';-inkscape-font-specification:'Gotham Medium, ';letter-spacing:-18.5208px;fill:#1ed760;fill-opacity:1;stroke-width:1.47409"
       d="m 789.1016,256.60436 h 34.24615 V 406.04208 H 789.1016 Z"
       id="path8" /><path
       id="path7"
       style="font-size:283.026px;font-family:'Gotham Medium';-inkscape-font-specification:'Gotham Medium, ';letter-spacing:-18.5208px;fill:#1ed760;fill-opacity:1;stroke-width:1.47409"
       d="m 676.29837,253.49131 c -8.67947,0 -17.17026,1.6037 -25.47235,4.81133 -8.11341,3.20763 -15.37801,7.83025 -21.79326,13.86814 -6.22657,5.8492 -11.2267,13.20804 -15.00038,22.07619 -3.77368,8.67947 -5.6601,18.49069 -5.6601,29.43436 v 0.5664 c 0,10.94367 1.88642,20.7549 5.6601,29.43436 3.77368,8.67947 8.77381,16.0383 15.00038,22.07619 6.41525,5.84921 13.67985,10.37759 21.79326,13.58522 8.11341,3.20763 16.6042,4.81133 25.47235,4.81133 12.26446,0 22.54744,-2.54718 30.84953,-7.64165 8.3021,-5.09447 15.56669,-11.6983 21.79326,-19.81171 v 11.60421 c 0,15.09472 -4.05664,26.5102 -12.17005,34.24624 -8.11341,7.73605 -19.81215,11.60367 -35.09556,11.60367 -10.18893,0 -19.62266,-1.41522 -28.30213,-4.24548 -8.67946,-2.83026 -16.98178,-6.69788 -24.90651,-11.60367 l -12.73645,25.75527 c 19.62314,11.88709 41.88811,17.83071 66.7944,17.83071 13.58525,0 25.47247,-1.69849 35.66141,-5.0948 10.37762,-3.20763 18.96265,-8.20775 25.75527,-15.00038 12.64183,-12.64183 18.96294,-31.41559 18.96294,-56.32188 V 256.60455 h -34.24624 v 22.35911 c -5.84921,-6.98131 -12.92478,-12.92491 -21.22687,-17.8307 -8.11341,-5.09447 -18.49117,-7.64165 -31.133,-7.64165 z m 9.05681,28.86852 c 5.84921,0 11.41532,1.03772 16.69847,3.11325 5.47184,1.88684 10.18871,4.71728 14.15107,8.49096 3.96237,3.58499 7.07606,7.92436 9.34027,13.01883 2.45289,4.90579 3.6791,10.47189 3.6791,16.69846 v 0.5664 c 0,6.03789 -1.22621,11.60399 -3.6791,16.69846 -2.26421,4.90579 -5.3779,9.24569 -9.34027,13.01937 -3.96236,3.58499 -8.67923,6.41489 -14.15107,8.49042 -5.28315,1.88684 -10.84926,2.83033 -16.69847,2.83033 -5.84921,0 -11.41531,-0.94349 -16.69846,-2.83033 -5.09447,-2.07553 -9.52862,-4.90543 -13.3023,-8.49042 -3.77368,-3.77368 -6.7926,-8.11358 -9.05681,-13.01937 -2.26421,-5.09447 -3.39617,-10.75482 -3.39617,-16.98139 v -0.56639 c 0,-6.22657 1.03772,-11.79268 3.11325,-16.69846 2.26421,-5.09447 5.28313,-9.43438 9.05681,-13.01938 3.96236,-3.58499 8.49075,-6.32065 13.58522,-8.20749 5.09447,-2.07553 10.66057,-3.11325 16.69846,-3.11325 z" /><path
       id="path4"
       style="font-size:283.026px;font-family:'Gotham Medium';-inkscape-font-specification:'Gotham Medium, ';letter-spacing:-18.5208px;fill:#1ed760;fill-opacity:1;stroke-width:1.47409"
       d="m 528.39994,250.34711 c -10.75499,0 -20.56677,2.07544 -29.43492,6.22649 -8.86815,3.96237 -16.60394,9.52847 -23.20788,16.69846 -6.41526,6.98131 -11.41539,15.18884 -15.00038,24.62304 -3.58499,9.4342 -5.37772,19.52924 -5.37772,30.28423 v 0.56585 c 0,11.50973 1.98121,22.07596 5.94357,31.69884 3.96237,9.4342 9.34,17.54749 16.13262,24.34012 6.98131,6.79263 15.09461,12.07601 24.34012,15.84969 9.4342,3.77368 19.52869,5.66065 30.28368,5.66065 13.77393,0 25.56691,-2.54719 35.37848,-7.64166 10.00025,-5.09447 18.58529,-11.88732 25.75528,-20.3781 l -20.09464,-17.8307 c -6.03789,5.84921 -12.17052,10.28335 -18.39709,13.3023 -6.22657,3.01894 -13.58486,4.5284 -22.07564,4.5284 -11.13235,0 -20.66087,-3.20741 -28.5856,-9.62266 -7.73605,-6.60394 -12.54769,-16.03821 -14.43453,-28.30267 h 109.81399 c 0.18873,-1.69816 0.28292,-3.30186 0.28292,-4.81133 0.18872,-1.69816 0.28292,-3.3024 0.28292,-4.81187 0,-10.75499 -1.50946,-20.94373 -4.5284,-30.56661 -3.01895,-9.81157 -7.54733,-18.39661 -13.58522,-25.75528 -5.84921,-7.35867 -13.30228,-13.20805 -22.35911,-17.54778 -8.86815,-4.33973 -19.24536,-6.50941 -31.13245,-6.50941 z m -0.28293,28.01921 c 5.66052,0 10.66065,1.03771 15.00038,3.11324 4.52841,2.07553 8.39604,4.90598 11.60367,8.49097 3.20763,3.39631 5.75481,7.5472 7.64165,12.45298 1.88684,4.7171 3.11359,9.81201 3.67964,15.28385 h -76.69999 c 1.50947,-11.69841 5.66036,-21.13269 12.45299,-28.30268 6.98131,-7.35868 15.75535,-11.03836 26.32166,-11.03836 z" /><path
       id="path2"
       style="font-size:283.026px;font-family:'Gotham Medium';-inkscape-font-specification:'Gotham Medium, ';letter-spacing:-18.5208px;fill:#1ed760;fill-opacity:1;stroke-width:1.47409"
       d="m 280.47417,197.27423 0.96824,208.76773 h 34.81209 v -69.05833 h 43.02013 0.56585 l 48.68077,69.05833 h 41.03858 l -53.4921,-75.0019 c 6.98131,-1.88684 13.30242,-4.52826 18.96294,-7.92457 5.84921,-3.585 10.84933,-7.83067 15.00038,-12.73645 4.15105,-5.09447 7.35845,-10.84906 9.62266,-17.26431 2.45289,-6.60394 3.0622,-19.0011 3.0622,-27.11451 v -0.56639 c 0,-8.67947 -1.76603,-22.21496 -4.59629,-29.38495 -2.83026,-7.16999 -6.88691,-13.49056 -12.17006,-18.9624 -6.41526,-6.22657 -14.43431,-11.03822 -24.05719,-14.43453 -9.62289,-3.585 -20.66086,-5.37772 -33.11401,-5.37772 z m 34.81209,31.69939 h 50.66178 c 13.0192,0 23.1137,2.8299 30.28369,8.49042 7.16999,5.47183 11.1057,19.19581 11.1057,29.9508 v 0.56639 c 0,10.18894 -3.06172,23.34109 -10.42039,29.37898 -7.35867,5.84921 -17.26468,8.77389 -29.71783,8.77389 H 316.2545 Z" /><circle
       style="fill:#1ed760;fill-opacity:1;stroke-width:0.307501"
       id="path6"
       cx="806.34161"
       cy="216.53639"
       r="19.487118" /><path
       d="m 992.28265,257.80386 h -18.9627 v -10.75498 c 0,-16.60419 -4.05671,-28.963 -12.17012,-37.07641 -7.92473,-7.92473 -19.15142,-11.88709 -33.68009,-11.88709 -6.03789,0 -11.2267,0.37737 -15.56643,1.1321 -4.33973,0.75474 -8.39644,1.69816 -12.17012,2.83026 v 28.86865 c 3.39631,-1.1321 6.69828,-1.98118 9.90591,-2.54723 3.01895,-0.75473 6.41526,-1.1321 10.18894,-1.1321 13.20788,0 19.81182,7.54736 19.81182,22.64208 v 8.20775 h -39.62364 z"
       id="path1"
       style="font-size:283.026px;font-family:'Gotham Medium';-inkscape-font-specification:'Gotham Medium, ';letter-spacing:-18.5208px;display:none;fill:#1ed760;fill-opacity:1;stroke-width:1.47409"
       aria-label="Regif"
       sodipodi:nodetypes="ccsssscccssccc" /></g><path
     id="path30"
     style="display:inline;fill:#1ed760;fill-opacity:1;stroke-width:0.229749"
     d="M 205.04686,-9.7817806e-7 C 91.802794,-1.9978178e-5 2.4147948e-4,91.802353 1.4794893e-6,205.04642 -1.8520511e-5,318.29067 91.802604,410.09327 205.04686,410.09326 318.29111,410.09327 410.09371,318.29067 410.09369,205.04642 410.09345,91.802353 318.29092,-2.0978178e-5 205.04686,-9.7817806e-7 Z M 242.95136,33.331173 c 1.68543,-0.0155 3.34926,0.0272 5.01808,0.23725 3.45462,0.51714 6.82623,1.70909 9.87688,3.41123 4.60257,2.5676 8.51659,6.33336 11.51209,10.66707 2.57501,3.74339 4.58516,7.88657 5.86686,12.24792 1.59853,5.54338 2.10019,11.39908 1.7647,17.1521 -0.2912,5.08975 -1.37027,10.07069 -2.70328,14.98287 -2.36513,8.589897 -5.6069,16.902847 -9.28614,25.003887 -0.4999,1.01738 -0.88626,2.09783 -1.49578,3.05678 -0.16172,0.16219 -0.3186,0.52081 -0.59027,0.45889 -1.61787,-0.59734 -3.1317,-1.44459 -4.62819,-2.29447 -4.17579,-2.46168 -8.23556,-5.15733 -12.20066,-7.94867 -5.41836,-3.88642 -10.6307,-8.1072 -15.43041,-12.753607 -5.31987,-5.17565 -10.17079,-10.93588 -13.67943,-17.50702 -1.91438,-3.58678 -3.43536,-7.42135 -4.10265,-11.44687 -0.79645,-4.65163 -0.60608,-9.51715 0.84359,-14.0594 1.4632,-4.62692 4.39581,-8.61546 7.91087,-11.91332 4.1934,-3.89756 9.25372,-6.92134 14.77255,-8.49783 2.12397,-0.65095 4.35713,-0.75008 6.55119,-0.79681 z m 1.43766,21.27365 c -2.23125,0.0405 -4.28855,1.07663 -6.16697,2.1905 -1.94984,1.17102 -3.95719,2.5153 -5.04785,4.58045 -1.16573,2.20968 -1.12167,4.82041 -0.72119,7.22228 0.69009,3.92297 2.23605,7.63452 3.93298,11.21766 3.75851,7.74501 8.51129,14.95153 13.39398,22.021307 3.36505,4.84318 6.73597,9.68453 10.25733,14.41574 0.68549,0.97395 1.50322,1.83828 2.32519,2.69619 0.0974,-0.86735 0.21311,-1.73276 0.29917,-2.6012 0.17182,-3.65406 0.18211,-7.31444 0.22921,-10.9719 0.0411,-6.461367 0.11725,-12.927207 -0.1744,-19.384187 -0.19504,-4.23038 -0.6929,-8.46375 -1.79683,-12.55984 -0.62681,-2.53177 -1.50695,-5.0066 -2.72217,-7.31823 -1.8624,-3.53455 -4.35256,-6.82053 -7.6103,-9.17838 -1.81349,-1.27789 -3.92702,-2.35599 -6.19815,-2.33039 z m 71.54798,12.44641 c 2.48793,-0.0614 5.0036,0.11699 7.40187,0.66685 3.17846,0.70272 6.22339,2.14101 8.80502,4.05491 3.02349,2.21235 5.62662,5.04012 7.16321,8.48555 0.65887,1.48372 1.09276,2.9419 1.36724,4.52893 0.29576,1.91094 0.4688,3.89332 0.0789,5.78511 -0.73892,3.555 -2.03496,7.04594 -3.86398,10.198247 -3.24736,5.65378 -8.19188,10.23717 -13.79427,13.44691 -4.26617,2.45142 -8.91028,4.18884 -13.64446,5.45618 -8.58527,2.26153 -17.50133,2.66202 -26.3475,2.51045 -3.73756,-0.0853 -7.4844,-0.21959 -11.20394,-0.49765 -0.75343,-0.10091 -1.54703,-0.0839 -2.26282,-0.35728 0.43629,-1.21975 0.8658,-2.44245 1.29446,-3.66502 1.6223,-4.5101 3.45815,-8.9384 5.33802,-13.34152 1.88394,-4.441317 3.98017,-8.803887 6.52662,-12.907197 3.722,-6.05279 8.38474,-11.5856 13.94078,-16.05283 3.34028,-2.67397 6.81612,-5.26218 10.84051,-6.79931 2.67363,-1.03148 5.52744,-1.45096 8.36032,-1.51233 z m -140.12,2.78788 v 4.7e-4 c 1.35464,-0.0229 2.67199,0.0221 4.01333,0.14509 2.54851,0.25236 5.12134,0.73886 7.52617,1.72593 1.73989,0.76725 3.38948,1.69902 4.95286,2.76473 2.50222,1.7444 4.78329,3.8306 7.03844,5.90042 7.3389,6.85593 14.42152,13.97888 21.61439,20.986297 3.1591,3.04174 6.31311,6.09434 9.62215,8.97375 3.77759,3.10475 8.18325,5.38434 12.77819,7.01671 3.3542,1.22134 6.83988,2.00497 10.28898,2.90224 0.73274,0.23856 1.55406,0.3305 2.24014,0.71552 0.28698,0.13613 0.14439,0.46591 -0.0572,0.60634 -0.92714,0.74401 -2.11032,1.05957 -3.23165,1.3885 -1.79802,0.53367 -3.68494,0.57558 -5.53462,0.66448 -1.90553,0.0671 -3.88207,0.10355 -5.73973,-0.0123 -1.12872,-0.0996 -2.22652,-0.40672 -3.34366,-0.58697 -3.66168,-0.61952 -7.18453,-1.88727 -10.53096,-3.45565 -3.47662,-1.65162 -6.85848,-3.62954 -9.99646,-5.89428 -7.13303,-5.15368 -14.18124,-10.42494 -21.19992,-15.732877 -2.98806,-2.22559 -5.85952,-4.61688 -8.92223,-6.74543 -1.79623,-1.2214 -3.56665,-2.53053 -5.59087,-3.35594 -2.74133,-1.1243 -5.59002,-1.99842 -8.49689,-2.5752 -4.59368,-0.82691 -9.34357,-0.65114 -13.9077,0.27789 -1.76996,0.33064 -3.46391,0.9589 -5.21515,1.3644 -0.0232,-0.49121 0.19226,-1.00542 0.32894,-1.45277 0.69207,-1.87694 1.61917,-3.70194 2.6234,-5.44768 1.27663,-2.26175 2.91387,-4.34898 4.97696,-5.9439 1.8106,-1.39017 3.92961,-2.22334 6.06489,-2.94619 2.47159,-0.85971 5.08491,-1.26246 7.69819,-1.28358 z m 136.28106,13.78104 c -2.79167,1.41024 -5.61804,2.76275 -8.28044,4.41031 -5.26915,3.18267 -9.95537,7.23926 -14.24513,11.63543 -3.15456,3.286967 -6.167,6.703417 -9.20154,10.100897 -2.53556,2.88002 -5.10678,5.73424 -7.53515,8.70672 -0.17544,0.24343 -0.59457,0.61035 -0.25662,0.88991 0.44573,0.25153 0.95181,-0.0804 1.39843,-0.17392 7.99698,-2.47113 16.05487,-4.80043 23.82711,-7.92646 4.48581,-1.83362 8.9022,-3.89239 13.00314,-6.48833 3.87785,-2.47596 7.54434,-5.478607 10.06308,-9.377817 1.10629,-1.66884 1.85401,-3.53808 2.48825,-5.42782 0.26531,-0.8294 0.63977,-1.81347 0.13044,-2.62766 -1.00766,-1.44295 -2.4383,-2.64197 -4.13715,-3.16832 -2.32123,-0.7524 -4.79403,-0.50291 -7.19346,-0.55294 h -0.0122 z m -57.13072,47.942977 v 47.77694 H 100.53167 v -0.0231 c -0.51287,-0.12105 -1.074736,-0.25576 -1.554386,-0.3724 -3.08039,-0.72411 -5.78977,-2.81031 -7.32153,-5.57339 -0.62198,-0.9065 -0.73908,-2.08636 -0.81855,-3.1031 -0.18008,-2.86136 -0.17837,-5.78144 -0.20983,-8.67317 -0.0649,-17.45862 -0.0198,-4.75524 -0.0336,-22.21395 0.76539,-1.2954 1.41415,-2.66698 2.31621,-3.87627 1.17719,-1.68328 3.04472,-2.62846 4.73452,-3.7 16.652706,-0.0409 86.222596,-0.0816 102.875296,-0.1224 16.56181,-0.0398 37.88567,-0.0793 54.44749,-0.1191 z m 14.48559,0.01 c 12.77423,0.004 25.54847,0.006 38.32272,0.008 15.5786,0.0232 -21.75909,-0.0486 -6.1807,0.0534 4.37213,0.0628 8.74981,0.053 13.08868,0.47072 1.60412,0.21654 3.43144,0.34944 4.61022,1.60164 1.11103,1.39597 2.44974,2.66277 3.16689,4.32713 0.81959,1.8134 0.68584,3.80594 0.78877,5.7369 0.182,8.4288 0.22265,12.26112 -0.1413,24.39926 -0.094,1.4705 -0.0496,2.92251 -0.51419,4.35975 -0.89174,1.99991 -2.45974,3.7732 -4.24774,4.9141 -1.53009,1.0357 -3.31015,1.49296 -5.07384,1.87954 5e-5,0.005 -4e-5,0.0106 0,0.0161 l -43.81951,-4.7e-4 z m -168.91985,58.47231 h 154.43426 v 139.50202 c -16.70555,-0.0191 -38.17345,-0.0258 -54.87897,-0.0539 -12.47959,-0.0422 -77.87683,-0.0591 -90.35423,-0.31616 -1.02266,-0.0986 -2.12942,0.11879 -3.0667,-0.39746 -2.05226,-1.09627 -3.78589,-2.78858 -4.99728,-4.76996 -0.79127,-1.26033 -0.77598,-2.75767 -0.87054,-4.17401 -0.26726,-6.5154 -0.20119,-13.03862 -0.24527,-19.55811 -0.0364,-23.86752 -0.023,-86.36487 -0.0213,-110.23243 z m 168.91985,0 h 43.94522 c -9.1e-4,19.96802 0.0196,78.56566 -0.002,98.53367 -0.0609,10.4309 -0.0863,20.86398 -0.38516,31.29137 -0.10038,1.10538 0.069,2.22974 -0.40597,3.26473 -1.00111,2.13434 -2.69857,3.92572 -4.68536,5.1764 -1.28452,0.86764 -2.87431,0.90749 -4.36589,0.99812 -4.82544,0.20533 -9.74349,0.17786 -14.60525,0.21079 -24.13743,0.0519 4.64178,0.0156 -19.4957,0.027 z"
     sodipodi:nodetypes="scscsccccccccccccccccccccccccccccccccccccccccccccccccccccccccccccccccccccccccccccccccccccccccccccccccccccccccccccccsccccccccccccccccccccccccscccccccccccc"
     inkscape:export-filename="/Users/admin/Desktop/path.png"
     inkscape:export-xdpi="96"
     inkscape:export-ydpi="96" /><path
     d="m 155.88323,216.51256 c -14.87159,0.6068 -23.19424,1.27374 -34.00692,6.87824 -6.32383,3.27783 -5.49011,12.85591 1.33466,14.94933 3.34091,1.02479 6.54557,-0.50476 9.80009,-1.23051 5.75173,-1.28258 11.52428,-2.19945 17.37289,-2.89891 14.29528,-1.70967 29.52873,-0.61866 43.65495,1.92825 9.44613,1.70312 18.87453,4.32397 27.61843,8.3276 4.28514,1.96208 9.28393,6.25011 14.25468,4.93509 5.73543,-1.5173 8.08683,-8.43458 4.27929,-13.07157 -3.06684,-3.73496 -9.25925,-5.9118 -13.63392,-7.68142 -13.80358,-5.58377 -26.90641,-10.20907 -58.39218,-11.66603 -1.67833,-0.0777 -3.31483,-0.19421 -4.90543,-0.24155 m -11.76024,29.96988 c -10.33017,1.58403 -16.76333,1.66062 -24.71802,6.31936 -5.0988,2.98614 -4.0602,11.03384 1.77497,12.44327 6.08727,1.47033 15.05374,-3.08889 21.38201,-3.696 13.40782,-1.28629 26.9319,-0.5658 40.09128,2.34072 7.81833,1.72684 15.54956,4.37587 22.71839,7.93955 3.60266,1.79089 7.76201,5.36829 12.02739,4.20193 4.36371,-1.19325 6.49845,-6.78926 3.71833,-10.5071 -2.80234,-3.74757 -9.32629,-6.07554 -13.51843,-7.86943 -17.86173,-7.64335 -30.53126,-11.07577 -49.17251,-11.52979 m -12.13475,28.6779 c -8.77121,0.65724 -15.16006,1.55765 -23.32817,5.29256 -4.27534,1.95491 -4.21621,8.5807 0.44409,10.04207 5.26358,1.65053 14.12063,-2.04285 19.59984,-2.70025 10.86554,-1.3037 22.20032,-1.18865 32.96395,0.96379 7.24165,1.44814 14.31729,3.74928 20.93654,7.03761 3.16294,1.57131 6.93947,4.91051 10.68931,3.77024 3.5858,-1.09038 4.92882,-5.29321 2.73941,-8.28874 -2.46545,-3.37321 -8.38129,-5.36465 -12.09235,-7.03765 -14.03744,-6.32824 -32.0465,-10.57118 -51.95262,-9.07963 z"
     style="fill:#1ed760;fill-opacity:1;stroke:none;stroke-width:1.68362"
     id="path1-9"
     sodipodi:nodetypes="cssssssssssccsssssssscssssssssss"
     inkscape:export-filename="/Users/admin/Documents/GitHub/spotify_regifted_cn/media/assets/icon_spotgreen.svg"
     inkscape:export-xdpi="96"
     inkscape:export-ydpi="96" /></svg>
