<?xml version="1.0" encoding="UTF-8" standalone="no"?>
<!-- Created with Inkscape (http://www.inkscape.org/) -->

<svg
   width="1532mm"
   height="569mm"
   viewBox="0 0 1532 569"
   version="1.1"
   id="svg1"
   xml:space="preserve"
   xmlns="http://www.w3.org/2000/svg"
   xmlns:svg="http://www.w3.org/2000/svg"><defs
     id="defs1" /><g
     id="layer1"><g
       id="g7"
       transform="matrix(0.95161462,0,0,0.95161462,257.598,20.503726)"
       style="display:inline;fill:#1ed760;fill-opacity:1"><path
         d="m 990.06155,402.131 c -5.91747,0 -11.38665,-0.71727 -16.40754,-2.15181 -5.02088,-1.43454 -9.41415,-3.76567 -13.17982,-6.99338 -3.58635,-3.22771 -6.36577,-7.44166 -8.33826,-12.64187 -1.97249,-5.37952 -2.95873,-12.01426 -2.95873,-19.90422 v -77.2459 h -18.0214 v -27.9735 h 18.0214 V 216.2188 h 32.5461 v 39.00152 h 38.1946 v 27.9735 h -38.1946 v 72.13535 c 0,6.27611 1.5242,10.8487 4.57259,13.71778 3.04839,2.68976 7.35201,4.03464 12.91085,4.03464 6.99336,0 13.71776,-1.61386 20.17316,-4.84157 v 26.62863 c -4.1243,2.33112 -8.5175,4.12429 -13.1798,5.37952 -4.6622,1.25522 -10.04176,1.88283 -16.13855,1.88283 z"
         id="text3"
         style="font-size:268.976px;font-family:'Gotham Medium';-inkscape-font-specification:'Gotham Medium, ';letter-spacing:-17.6014px;fill:#1ed760;fill-opacity:1;stroke-width:1.40092"
         transform="scale(0.99009969,1.0099993)"
         aria-label="t" /><path
         d="m 1134.3408,317.23248 c -0.5661,-5.47183 -1.7925,-10.5663 -3.6793,-15.2834 -1.8869,-4.90579 -4.4341,-9.05684 -7.6417,-12.45315 -3.2077,-3.58499 -7.0757,-6.41525 -11.6041,-8.49078 -4.3397,-2.07552 -9.3399,-3.11328 -15.0004,-3.11328 -10.5663,0 -19.3401,3.67934 -26.3214,11.03801 -6.7926,7.16999 -10.9436,16.60419 -12.4531,28.3026 z m -33.9631,88.58714 c -10.755,0 -20.8496,-1.88684 -30.2838,-5.66052 -9.2455,-3.77368 -17.3589,-9.05683 -24.3402,-15.84945 -6.7927,-6.79263 -12.1702,-14.90604 -16.1325,-24.34024 -3.9624,-9.62289 -5.9436,-20.18919 -5.9436,-31.69891 v -0.56605 c 0,-10.75499 1.7925,-20.84959 5.3775,-30.28379 3.585,-9.4342 8.5851,-17.64195 15.0004,-24.62326 6.6039,-7.16999 14.34,-12.73617 23.2082,-16.69853 8.8681,-4.15105 18.6797,-6.22658 29.4347,-6.22658 11.8871,0 22.2647,2.16987 31.1328,6.5096 9.0569,4.33973 16.5099,10.18894 22.3591,17.54761 6.0379,7.35868 10.5663,15.9438 13.5852,25.75537 3.0189,9.62289 4.5284,19.81182 4.5284,30.56681 0,1.50947 -0.094,3.11329 -0.283,4.81144 0,1.50947 -0.094,3.11329 -0.283,4.81144 h -109.8141 c 1.8869,12.26446 6.6983,21.69866 14.4343,28.3026 7.9247,6.41526 17.4533,9.62289 28.5856,9.62289 8.4908,0 15.8495,-1.50947 22.0761,-4.52842 6.2265,-3.01894 12.3588,-7.45301 18.3967,-13.30222 l 20.0948,17.83064 c -7.17,8.49078 -15.7551,15.2834 -25.7554,20.37787 -9.8115,5.09447 -21.6043,7.6417 -35.3782,7.6417 z m 153.8421,-30.00075 c 5.6605,0 11.1323,-1.13211 16.4155,-3.39632 5.2831,-2.26421 9.9059,-5.47183 13.8682,-9.62288 3.9624,-4.33973 7.0757,-9.4342 9.3399,-15.2834 2.4529,-5.84921 3.6793,-12.35881 3.6793,-19.5288 v -0.56605 c 0,-7.16999 -1.2264,-13.67959 -3.6793,-19.5288 -2.2642,-6.03789 -5.3775,-11.13235 -9.3399,-15.2834 -3.9623,-4.15105 -8.5851,-7.35867 -13.8682,-9.62288 -5.2832,-2.26421 -10.755,-3.39632 -16.4155,-3.39632 -5.8493,0 -11.4155,1.13211 -16.6986,3.39632 -5.0945,2.07552 -9.6229,5.1888 -13.5852,9.33985 -3.9624,4.15105 -7.0757,9.24552 -9.3399,15.28341 -2.2642,5.84921 -3.3963,12.45315 -3.3963,19.81182 v 0.56605 c 0,7.16999 1.1321,13.77393 3.3963,19.81182 2.2642,5.84921 5.3775,10.84933 9.3399,15.00038 3.9623,4.15105 8.4907,7.35867 13.5852,9.62288 5.2831,2.26421 10.8493,3.39632 16.6986,3.39632 z m -8.2078,29.71773 c -8.8681,0 -17.4533,-1.69816 -25.7554,-5.09447 -8.3021,-3.39631 -15.6607,-8.39644 -22.076,-15.00038 -6.4153,-6.60394 -11.6041,-14.71735 -15.5664,-24.34024 -3.9624,-9.62288 -5.9436,-20.66089 -5.9436,-33.11404 v -0.56605 c 0,-12.45315 1.8868,-23.49116 5.6605,-33.11404 3.9624,-9.62289 9.1512,-17.7363 15.5665,-24.34024 6.4153,-6.60394 13.7739,-11.60407 22.076,-15.00038 8.4908,-3.39631 17.1703,-5.09447 26.0384,-5.09447 12.2645,0 22.4534,2.64158 30.5668,7.92473 8.1134,5.28315 14.906,11.41538 20.3779,18.39669 v -80.37938 h 34.2461 v 210.09235 h -34.2461 v -28.38966 c -5.4719,7.73605 -12.3588,14.33999 -20.6609,19.81182 -8.1134,5.47184 -18.208,8.20776 -30.2838,8.20776 z"
         id="text5"
         style="font-size:283.026px;font-family:'Gotham Medium';-inkscape-font-specification:'Gotham Medium, ';letter-spacing:-18.5208px;fill:#1ed760;fill-opacity:1;stroke-width:1.47409"
         aria-label="ed" /><path
         d="m 367.19922,306.13391 c 12.45315,0 22.35906,-2.9246 29.71773,-8.77381 7.35867,-6.03789 11.03801,-14.1513 11.03801,-24.34024 v -0.56605 c 0,-10.75499 -3.58499,-18.8684 -10.75498,-24.34023 -7.16999,-5.66052 -17.26459,-8.49078 -30.28379,-8.49078 h -50.66165 v 66.51111 z m -85.75688,-98.21003 h 88.30411 c 12.45315,0 23.49116,1.7925 33.11405,5.3775 9.62288,3.39631 17.64195,8.20775 24.05721,14.43432 5.28315,5.47184 9.33985,11.79276 12.17011,18.96275 2.83026,7.16999 4.24539,15.09471 4.24539,23.77418 v 0.56605 c 0,8.11341 -1.22644,15.47209 -3.67933,22.07603 -2.26421,6.41525 -5.47184,12.17012 -9.62289,17.26459 -4.15105,4.90578 -9.15117,9.15117 -15.00038,12.73617 -5.66052,3.39631 -11.98143,6.03788 -18.96274,7.92472 l 53.49192,75.00189 h -41.03877 l -48.68048,-69.05834 h -0.56605 -43.01995 v 69.05834 h -34.8122 z m 284.59992,109.78327 c -0.56605,-5.47184 -1.7925,-10.56631 -3.67934,-15.28341 -1.88684,-4.90578 -4.43407,-9.05683 -7.6417,-12.45314 -3.20763,-3.58499 -7.07565,-6.41525 -11.60406,-8.49078 -4.33973,-2.07553 -9.33986,-3.11329 -15.00038,-3.11329 -10.56631,0 -19.34011,3.67934 -26.32142,11.03802 -6.79263,7.16999 -10.94367,16.60419 -12.45314,28.3026 z m -33.96312,88.58714 c -10.75499,0 -20.84958,-1.88684 -30.28378,-5.66052 -9.24551,-3.77368 -17.35893,-9.05683 -24.34024,-15.84946 -6.79262,-6.79263 -12.17011,-14.90604 -16.13248,-24.34024 -3.96236,-9.62288 -5.94354,-20.18918 -5.94354,-31.69891 v -0.56605 c 0,-10.75499 1.7925,-20.84958 5.37749,-30.28378 3.58499,-9.4342 8.58512,-17.64195 15.00038,-24.62326 6.60394,-7.16999 14.33998,-12.73617 23.20813,-16.69854 8.86815,-4.15105 18.67971,-6.22657 29.4347,-6.22657 11.88709,0 22.26471,2.16987 31.13286,6.5096 9.05683,4.33973 16.50985,10.18894 22.35906,17.54761 6.03789,7.35867 10.5663,15.9438 13.58525,25.75537 3.01894,9.62288 4.52841,19.81181 4.52841,30.5668 0,1.50947 -0.0943,3.11329 -0.28302,4.81145 0,1.50947 -0.0943,3.11328 -0.28303,4.81144 H 489.62524 c 1.88684,12.26446 6.69828,21.69866 14.43433,28.3026 7.92473,6.41525 17.45327,9.62288 28.58562,9.62288 8.49078,0 15.84946,-1.50947 22.07603,-4.52841 6.22657,-3.01895 12.3588,-7.45302 18.39669,-13.30223 l 20.09485,17.83064 c -7.16999,8.49078 -15.75512,15.2834 -25.75537,20.37787 -9.81157,5.09447 -21.60432,7.64171 -35.37825,7.64171 z m 153.27599,-41.00795 c 5.84921,0 11.41538,-0.94342 16.69853,-2.83026 5.47184,-2.07553 10.18894,-4.90579 14.1513,-8.49078 3.96237,-3.77368 7.07565,-8.11341 9.33986,-13.0192 2.45289,-5.09447 3.67934,-10.66064 3.67934,-16.69853 v -0.56605 c 0,-6.22657 -1.22645,-11.79275 -3.67934,-16.69854 -2.26421,-5.09447 -5.37749,-9.4342 -9.33986,-13.01919 -3.96236,-3.77368 -8.67946,-6.60394 -14.1513,-8.49078 -5.28315,-2.07553 -10.84932,-3.11329 -16.69853,-3.11329 -6.03789,0 -11.60406,1.03776 -16.69853,3.11329 -5.09447,1.88684 -9.62289,4.62276 -13.58525,8.20775 -3.77368,3.585 -6.79262,7.92473 -9.05683,13.0192 -2.07553,4.90578 -3.11329,10.47196 -3.11329,16.69853 v 0.56605 c 0,6.22657 1.1321,11.88709 3.39631,16.98156 2.26421,4.90579 5.28315,9.24552 9.05683,13.0192 3.77368,3.58499 8.20776,6.41525 13.30223,8.49078 5.28315,1.88684 10.84932,2.83026 16.69853,2.83026 z m -2.83026,86.60596 c -24.90629,0 -47.171,-5.94355 -66.79414,-17.83064 l 12.73617,-25.75537 c 7.92473,4.90579 16.22683,8.77381 24.90629,11.60407 8.67947,2.83026 18.11367,4.24539 28.3026,4.24539 15.28341,0 26.98182,-3.86802 35.09523,-11.60407 8.11341,-7.73604 12.17011,-19.15142 12.17011,-34.24614 v -11.60407 c -6.22657,8.11341 -13.4909,14.71735 -21.793,19.81182 -8.30209,5.09447 -18.58537,7.6417 -30.84983,7.6417 -8.86815,0 -17.35893,-1.60381 -25.47234,-4.81144 -8.11341,-3.20763 -15.37775,-7.73604 -21.793,-13.58525 -6.22657,-6.03789 -11.2267,-13.39656 -15.00038,-22.07603 -3.77368,-8.67946 -5.66052,-18.49103 -5.66052,-29.4347 v -0.56605 c 0,-10.94367 1.88684,-20.75524 5.66052,-29.43471 3.77368,-8.86815 8.77381,-16.22682 15.00038,-22.07602 6.41525,-6.03789 13.67959,-10.66065 21.793,-13.86828 8.30209,-3.20763 16.79287,-4.81144 25.47234,-4.81144 12.64183,0 23.01945,2.54723 31.13286,7.6417 8.30209,4.90579 15.37774,10.84933 21.22695,17.83064 v -22.35905 h 34.24614 v 118.87092 c 0,24.90629 -6.32091,43.68034 -18.96274,56.32217 -6.79262,6.79263 -15.37774,11.79275 -25.75536,15.00038 -10.18894,3.39631 -22.07603,5.09447 -35.66128,5.09447 z M 789.1016,256.60436 h 34.24615 V 406.04208 H 789.1016 Z m 68.08496,29.4347 h -18.96274 v -28.58563 h 18.96274 v -10.75498 c 0,-16.60419 4.05671,-28.963 12.17012,-37.07641 7.92473,-7.92473 19.15142,-11.88709 33.68009,-11.88709 6.03789,0 11.2267,0.37737 15.56643,1.1321 4.33973,0.75474 8.39644,1.69816 12.17012,2.83026 v 28.86865 c -3.39631,-1.1321 -6.69828,-1.98118 -9.90591,-2.54723 -3.01895,-0.75473 -6.41526,-1.1321 -10.18894,-1.1321 -13.20788,0 -19.81182,7.54736 -19.81182,22.64208 v 8.20775 h 39.62364 v 28.3026 h -39.05758 v 120.00302 h -34.24615 z"
         id="text6"
         style="font-size:283.026px;font-family:'Gotham Medium';-inkscape-font-specification:'Gotham Medium, ';letter-spacing:-18.5208px;fill:#1ed760;fill-opacity:1;stroke-width:1.47409"
         aria-label="Regif" /><circle
         style="fill:#1ed760;fill-opacity:1;stroke-width:0.307501"
         id="path6"
         cx="806.34161"
         cy="216.53639"
         r="19.487118" /></g><path
       id="path30"
       style="fill:#1ed760;fill-opacity:1;stroke-width:0.251219"
       d="M 233.81622,66.567513 A 224.20798,224.20798 0 0 0 9.6081991,290.77502 224.20798,224.20798 0 0 0 233.81622,514.98304 224.20798,224.20798 0 0 0 458.02424,290.77502 224.20798,224.20798 0 0 0 233.81622,66.567513 Z m -20.11919,36.445837 c 1.84293,-0.0169 3.66224,0.0297 5.48701,0.25942 3.77744,0.56547 7.46412,1.8688 10.79985,3.73 5.03267,2.80754 9.31245,6.9252 12.58787,11.66389 2.81564,4.0932 5.01363,8.62355 6.41511,13.39246 1.74791,6.0614 2.29644,12.4643 1.9296,18.75493 -0.31841,5.56537 -1.49832,11.01177 -2.95589,16.38298 -2.58615,9.39261 -6.13085,18.48239 -10.15391,27.34045 -0.54662,1.11245 -0.96908,2.29387 -1.63556,3.34243 -0.17683,0.17735 -0.34837,0.56948 -0.64543,0.50178 -1.76906,-0.65317 -3.42435,-1.57959 -5.06068,-2.50889 -4.56601,-2.69172 -9.00516,-5.63927 -13.34079,-8.69146 -5.92469,-4.24959 -11.62411,-8.8648 -16.87235,-13.9454 -5.817,-5.6593 -11.12123,-11.95782 -14.95774,-19.14302 -2.09328,-3.92195 -3.75639,-8.11485 -4.48603,-12.51655 -0.87088,-5.08631 -0.66272,-10.40651 0.92242,-15.37322 1.59993,-5.0593 4.80659,-9.42056 8.65012,-13.0266 4.58527,-4.26177 10.11846,-7.56812 16.15302,-9.29193 2.32245,-0.71178 4.76429,-0.82017 7.16338,-0.87127 z m 1.572,23.26163 c -2.43975,0.0443 -4.6893,1.17724 -6.74326,2.3952 -2.13204,1.28044 -4.32698,2.75034 -5.51956,5.00848 -1.27466,2.41617 -1.22648,5.27086 -0.78858,7.89719 0.75458,4.28956 2.44501,8.34794 4.30051,12.26592 4.10973,8.46877 9.30665,16.34872 14.64562,24.07915 3.67951,5.29577 7.36543,10.58953 11.21585,15.76286 0.74955,1.06497 1.6437,2.01007 2.54248,2.94815 0.1065,-0.9484 0.23302,-1.89468 0.32712,-2.84428 0.18788,-3.99552 0.19913,-7.99796 0.25063,-11.9972 0.0449,-7.06517 0.12821,-14.13523 -0.19069,-21.1956 -0.21327,-4.6257 -0.75765,-9.25467 -1.96474,-13.73353 -0.68539,-2.76836 -1.64778,-5.47446 -2.97656,-8.0021 -2.03643,-3.86485 -4.75929,-7.4579 -8.32146,-10.03608 -1.98296,-1.39731 -4.29399,-2.57616 -6.77736,-2.54816 z m 78.23399,13.6095 c 2.72042,-0.0672 5.47118,0.12792 8.09356,0.72916 3.47548,0.76839 6.80495,2.34109 9.62783,4.43384 3.30603,2.41908 6.15241,5.5111 7.8326,9.2785 0.72043,1.62237 1.19487,3.21682 1.495,4.95215 0.3234,2.08951 0.51261,4.25714 0.0863,6.32572 -0.80797,3.8872 -2.22513,7.70436 -4.22507,11.15125 -3.55081,6.18211 -8.95739,11.19381 -15.08331,14.7035 -4.66483,2.6805 -9.74293,4.58027 -14.91951,5.96604 -9.38754,2.47287 -19.13679,2.91078 -28.80961,2.74505 -4.08683,-0.0933 -8.1838,-0.24011 -12.25093,-0.54415 -0.82383,-0.11034 -1.69159,-0.0917 -2.47427,-0.39067 0.47706,-1.33373 0.9467,-2.67069 1.41542,-4.00751 1.7739,-4.93156 3.78131,-9.77367 5.83685,-14.58826 2.05999,-4.85635 4.35211,-9.62659 7.13652,-14.11335 4.06981,-6.6184 9.16827,-12.66825 15.24351,-17.55293 3.65243,-2.92384 7.45308,-5.75392 11.85354,-7.43469 2.92347,-1.12787 6.04396,-1.58655 9.14157,-1.65365 z m -153.21391,3.0484 v 5.1e-4 c 1.48123,-0.025 2.92168,0.0242 4.38836,0.15865 2.78667,0.27594 5.59992,0.80791 8.22948,1.88722 1.90248,0.83894 3.70622,1.85779 5.41569,3.02308 2.73605,1.90741 5.23028,4.18856 7.69617,6.4518 8.0247,7.49661 15.76918,15.28518 23.63421,22.94743 3.45431,3.32598 6.90306,6.66384 10.52132,9.81233 4.1306,3.39488 8.94795,5.88749 13.97228,7.6724 3.66765,1.33547 7.47905,2.19233 11.25047,3.17345 0.80121,0.26085 1.69928,0.36139 2.44947,0.78238 0.3138,0.14886 0.15788,0.50945 -0.0625,0.66301 -1.01378,0.81353 -2.30753,1.15858 -3.53364,1.51825 -1.96604,0.58354 -4.02929,0.62937 -6.05182,0.72657 -2.0836,0.0734 -4.24484,0.11323 -6.2761,-0.0134 -1.23419,-0.10893 -2.43458,-0.44473 -3.65611,-0.64182 -4.00386,-0.67742 -7.85591,-2.06363 -11.51506,-3.77858 -3.8015,-1.80596 -7.49939,-3.96871 -10.9306,-6.44508 -7.7996,-5.63528 -15.50645,-11.39913 -23.18101,-17.20309 -3.26729,-2.43357 -6.40708,-5.04832 -9.756,-7.37577 -1.96408,-1.33554 -3.89994,-2.76701 -6.11332,-3.66955 -2.9975,-1.22936 -6.1124,-2.18517 -9.29091,-2.81585 -5.02295,-0.90418 -10.2167,-0.71198 -15.20734,0.30386 -1.93536,0.36154 -3.7876,1.04851 -5.70249,1.4919 -0.0254,-0.53711 0.21022,-1.09937 0.35967,-1.58853 0.75675,-2.05233 1.77048,-4.04787 2.86856,-5.95675 1.39592,-2.4731 3.18616,-4.75538 5.44204,-6.49934 1.9798,-1.52008 4.29682,-2.43111 6.63164,-3.22151 2.70256,-0.94005 5.56009,-1.38043 8.41757,-1.40353 z m 149.01623,15.06885 c -3.05255,1.54202 -6.14304,3.02092 -9.05423,4.82244 -5.76154,3.48009 -10.88568,7.91575 -15.57631,12.72274 -3.44934,3.59413 -6.74329,7.32984 -10.0614,11.0448 -2.7725,3.14916 -5.584,6.2701 -8.23929,9.52035 -0.19184,0.26618 -0.65014,0.66738 -0.2806,0.97307 0.48738,0.27503 1.04075,-0.0879 1.5291,-0.19017 8.74429,-2.70206 17.55517,-5.24902 26.05371,-8.66717 4.905,-2.00497 9.73409,-4.25613 14.21825,-7.09466 4.24023,-2.70733 8.24934,-5.99057 11.00346,-10.25415 1.20967,-1.82479 2.02726,-3.86871 2.72077,-5.93504 0.2901,-0.9069 0.69955,-1.98293 0.14263,-2.87321 -1.10183,-1.57779 -2.66616,-2.88886 -4.52376,-3.46439 -2.53815,-0.82271 -5.24202,-0.54991 -7.86567,-0.60461 h -0.0134 z m -67.67701,52.42315 v 85.22271 H 115.83014 v -0.0253 c -0.56079,-0.13237 -1.17517,-0.27967 -1.69964,-0.40721 -3.36824,-0.79177 -6.33081,-3.07292 -8.00571,-6.09421 -0.6801,-0.99121 -0.80814,-2.28132 -0.89504,-3.39307 -0.19691,-3.12875 -0.19504,-6.32171 -0.22944,-9.48366 -0.071,-19.09009 -0.0216,-38.18073 -0.0367,-57.27092 0.83692,-1.41645 1.5463,-2.9162 2.53266,-4.2385 1.2872,-1.84058 3.32924,-2.87408 5.17695,-4.04575 18.20887,-0.0447 36.4183,-0.0892 54.62715,-0.13384 18.10948,-0.0435 36.21846,-0.0867 54.32795,-0.13023 z m 21.04678,0.0109 c 13.96796,0.004 27.93592,0.007 41.9039,0.009 17.03439,0.0254 34.06919,-0.0532 51.10334,0.0584 4.7807,0.0687 9.56746,0.058 14.31179,0.5147 1.75402,0.23678 3.7521,0.3821 5.04104,1.75131 1.21485,1.52642 2.67866,2.9116 3.46283,4.7315 0.89618,1.98285 0.74993,4.16159 0.86248,6.273 0.25624,11.86673 0.14137,23.73715 0.10387,35.60558 -0.0632,8.01826 -0.018,16.0393 -0.25838,24.05486 -0.10276,1.60791 -0.0542,3.19561 -0.56224,4.76715 -0.97507,2.1868 -2.68959,4.1258 -4.64468,5.37332 -1.67307,1.13248 -3.61948,1.63247 -5.54798,2.05517 5e-5,0.006 -4e-5,0.0116 0,0.0176 l -105.77597,-5.2e-4 z M 115.83169,316.61117 h 105.79664 v 110.29921 c -18.26665,-0.0209 -36.53313,-0.0282 -54.79975,-0.0589 -13.64578,-0.0461 -27.29263,-0.0646 -40.93601,-0.34571 -1.11823,-0.1078 -2.32841,0.12989 -3.35328,-0.4346 -2.24404,-1.19871 -4.13967,-3.04917 -5.46427,-5.2157 -0.86521,-1.37811 -0.84849,-3.01537 -0.95188,-4.56406 -0.29224,-7.12425 -0.22,-14.25706 -0.2682,-21.38578 -0.0398,-26.09789 -0.0252,-52.19651 -0.0233,-78.29444 z m 126.84342,0 h 105.91343 c -0.001,21.83399 0.0214,43.66848 -0.002,65.50246 -0.0666,11.40564 -0.0944,22.81367 -0.42116,34.21548 -0.10976,1.20867 0.0754,2.4381 -0.4439,3.56981 -1.09466,2.33379 -2.95075,4.29257 -5.1232,5.66012 -1.40455,0.94872 -3.14291,0.9923 -4.77387,1.0914 -5.27637,0.22451 -10.654,0.19448 -15.97008,0.23048 -26.39302,0.0568 -52.78607,0.0171 -79.17915,0.0295 z" /></g></svg>
