<svg xmlns="http://www.w3.org/2000/svg" width="831" height="832" xmlns:v="https://vecta.io/nano"><path d="M391.596 144.186c-5.365.074-10.748-.01-16.09.564-1.581.163-3.122.644-4.447 1.534-1.324.79-2.794 1.283-4.149 2-.739.448-1.39 1.08-1.732 1.884-1.516.505-2.603 1.793-3.778 2.819-3.759 3.586-7.112 7.581-10.047 11.866-2.615 3.728-4.961 7.653-6.785 11.832-2.909 6.397-5.403 12.974-7.624 19.639L335.332 201H318l-.114-23.952c-.159-2.585-.111-5.436-1.722-7.614-1.102-1.524-2.814-2.528-4.676-2.769-4.3-.626-8.664-.52-12.997-.613-13.473-.065-26.948-.098-40.421.049-3.905.115-7.848.04-11.706.73-2.087.332-3.928 1.855-4.524 3.899-.811 2.828-.698 5.814-.794 8.728l-.194 17.102c-.039.749-.087 1.785-.179 2.646-.139.442.063 1.25-.368 1.444-5.93.925-11.988 1.148-17.786 2.805-2.973.769-5.828 1.999-8.346 3.768-3.499 2.348-6.807 5.078-9.297 8.509-2.092 2.723-3.879 5.682-5.201 8.855-.551 1.274-1.218 2.521-1.698 3.811l.525 248.593c1.67 3.173 3.169 6.462 5.365 9.321 3.033 4.279 6.877 7.934 11.093 11.034 2.736 1.825 5.796 3.136 8.908 4.168 2.734.543 5.546.495 8.321.628 13.903.395 27.814.401 41.721.486l143.593.06 189.463-.187c3.728-1.888 7.625-3.5 11.028-5.963 3.005-2.035 5.808-4.409 8.02-7.305 2.271-2.787 4.219-5.827 5.806-9.052.544-1.099 1.216-2.165 1.68-3.283V228.022c-1.956-3.722-3.605-7.637-6.132-11.027-1.978-2.83-4.291-5.446-7.067-7.519-2.869-2.225-5.895-4.392-9.414-5.449-3.686-1.214-7.501-2.173-11.4-2.264-10.899-.507-21.814-.556-32.723-.678L496.834 201c-1.313-4.368-2.805-8.679-4.502-12.912-2.982-7.632-6.348-15.126-10.311-22.301-2.337-3.964-5.227-7.589-8.351-10.959-2.884-2.919-6.066-5.575-9.56-7.735-3.281-2.019-7.244-2.092-10.97-2.327-9.865-.41-19.743-.373-29.614-.474l-31.93-.107zm22.844 17.838l30.719.42c2.386.103 4.961.149 7.41.4 1.33.246 2.655.642 3.857 1.268.852 1.07 2.158 1.589 3.321 2.214 3.525 3.008 5.763 7.159 8.068 11.103 3.016 5.335 5.385 11.009 7.556 16.73l1.941 5.519-45.764.308c-20.08.011-40.16.054-60.239-.126-5.325-.102-10.664-.061-15.971-.555-.188-.291.218-.984.254-1.411 1.327-4.93 3.552-9.552 5.705-14.162 2.134-4.345 4.483-8.61 7.319-12.541 2.121-2.603 4.676-4.858 7.465-6.721l3.892-2.47 34.467.023zM257.531 181c.85-.217.331.902.449 1.4l-.384 14.432c-.075 1.318-.09 2.656-.399 3.945-.31-3.86-.15-7.742-.197-11.611V181h.531zm11 0c.85-.217.331.902.449 1.4l-.384 14.432c-.075 1.318-.09 2.656-.399 3.945-.31-3.86-.15-7.742-.197-11.611V181h.531zm11 0c.85-.217.331.902.449 1.4l-.384 14.432c-.075 1.318-.09 2.656-.399 3.945-.31-3.86-.15-7.742-.197-11.611V181h.531zm11 0c.85-.217.331.902.449 1.4l-.384 14.432c-.075 1.318-.09 2.656-.399 3.945-.31-3.86-.15-7.742-.197-11.611V181h.531zM302 181c.776-.143 1.212.054 1 .9V201h-2v-20h1zm18.908 38.156l261.05.316 20.116.028c2.52 1.366 5.229 2.424 7.556 4.119 2.626 2.032 3.756 5.284 5.294 8.105.331.779.895 1.501 1.075 2.316l-.066 177.807-.359 48.347c-.101 3.309-.159 6.552-.483 9.878-.135 1.78-.537 3.573-1.563 5.066-1.54 2.483-3.498 4.743-5.979 6.322-1.365.883-2.727 1.871-4.277 2.384-3.215.41-6.497.423-9.682.531l-52.702.496-184.744.13H230.721c-2.82-1.564-5.853-2.795-8.429-4.762-2.378-1.863-3.96-4.575-4.979-7.378-.922-3.242-.869-6.651-1.041-9.99l-.332-12.673-.081-3.196h156.469c3.716 1.658 7.426 3.352 11.31 4.589 5.026 1.701 10.157 3.149 15.424 3.872a116.94 116.94 0 0 0 22.312 1.333c4.898-.131 9.797-.557 14.599-1.565 5.011-.952 9.982-2.166 14.768-3.947 2.639-.899 5.203-2.001 7.792-3.028 2.559-.754 5.437-.759 7.961-.922l7.896-.202 53.096-.144 73.514.044V435H479.771c3.863-3.592 7.754-7.168 11.253-11.125 3.621-3.987 7.079-8.154 9.867-12.777 3.309-5.35 6.423-10.861 8.613-16.775 1.982-5.15 3.781-10.403 4.727-15.854 1.124-5.876 1.87-11.838 1.882-17.828.077-6.211-.099-12.452-1.17-18.584-.957-5.921-2.229-11.816-4.329-17.447-1.831-5.151-3.957-10.211-6.687-14.956-2.584-4.632-5.281-9.237-8.702-13.312-3.195-3.977-6.679-7.708-10.255-11.343H530v-10h-57.352c-4.154-2.447-8.29-4.948-12.694-6.929-5.607-2.677-11.535-4.596-17.474-6.383-4.348-1.218-8.848-1.781-13.321-2.327-6.762-.767-13.591-.734-20.38-.422-9.341.48-18.493 2.824-27.215 6.124-5.839 2.211-11.615 4.651-17.034 7.772-1.354.705-2.674 1.541-4.048 2.165H216l.189-30.984.152-3.98c.169-2.648.178-5.329.693-7.938.924-2.573 2.459-4.911 4.255-6.959 2.668-3.022 6.551-4.986 10.596-5.141 7.239-.498 14.502-.499 21.754-.616l67.267-.226zM514 232v31h60v-33h-60v2zm30.541 8h20.469l-.441 12.523-40.568.49V240h20.541zM553 277v8h49v-10h-49v2zm-135.332-1.332c2.033.014 3.799.081 5.82.215 5.089.333 10.148 1.171 15.026 2.672 5.082 1.472 10.109 3.206 14.81 5.658a79.08 79.08 0 0 1 11.838 7.154c3.017 2.152 6.021 4.362 8.56 7.081 4.115 4.247 8.042 8.72 11.213 13.728 3.01 4.579 5.688 9.387 7.761 14.465 1.499 3.624 3.035 7.259 4.04 11.057 1.084 5.291 1.553 10.691 1.88 16.075.081 1.316.116 2.533.167 3.9.17 4.526.22 9.274-.675 13.813-1.258 6.848-3.519 13.478-6.265 19.863-2.344 5.056-5.206 9.869-8.367 14.455-3.238 4.322-6.907 8.318-10.811 12.046-4.184 3.731-8.69 7.107-13.426 10.106-4.527 2.679-9.301 4.942-14.207 6.837l-1.897.654c-1.814.605-3.708 1.163-5.456 1.647-1.379.382-2.739.734-4.19 1.078-5.322 1.332-10.837 1.567-16.297 1.723-1.71.028-3.624-.041-5.201-.131-5.331-.348-10.678-.948-15.822-2.449-4.867-1.313-9.664-2.938-14.18-5.198-4.249-1.981-8.286-4.381-12.127-7.066-3.262-2.239-6.532-4.517-9.286-7.38-4.611-4.578-8.853-9.549-12.388-15.01-1.766-2.663-3.459-5.379-4.954-8.204-.268-.53-.683-1.351-.979-2.01-2.034-4.544-3.742-9.241-5.046-14.046-.164-.608-.367-1.545-.531-2.283-1.172-5.753-2.106-11.575-2.413-17.444-.054-1.191-.082-2.631-.052-3.921.02-1.004.056-1.81.129-2.834.558-7.377 2.393-14.603 4.716-21.607 1.73-4.673 4.019-9.12 6.409-13.485.721-1.293 1.458-2.482 2.26-3.647a110.93 110.93 0 0 1 8.387-10.69c.594-.662 1.399-1.512 2.105-2.219 3.899-3.822 8.005-7.47 12.515-10.56 2.273-1.495 4.639-2.843 7.026-4.146l2.211-1.162c1.422-.727 2.857-1.428 4.316-2.076a83.23 83.23 0 0 1 2.494-1.013c4.665-1.712 9.401-3.313 14.286-4.269a105.06 105.06 0 0 1 16.599-1.376zM283.664 285h64.988c-4.82 4.996-9.571 10.091-13.708 15.677-3.162 4.708-5.834 9.731-8.312 14.827-2.614 5.678-4.89 11.524-6.65 17.524-1.346 4.673-2.149 9.502-2.265 14.368-.181 6.131-.103 12.27.084 18.4.158 5.248.86 10.481 2.222 15.556 1.548 5.923 3.452 11.765 5.829 17.409 2.328 5.035 5.06 9.887 8.108 14.52 3.303 4.743 6.953 9.256 10.967 13.416 2.833 2.877 5.735 5.697 8.822 8.303H216V285h67.664zm132.279 7.732c-5.082.135-10.197.5-15.158 1.664-4.835 1.367-9.524 3.251-14.019 5.493-4.587 2.475-8.979 5.341-13.02 8.635-3.879 3.402-7.261 7.344-10.322 11.488-3.547 5.021-6.351 10.559-8.449 16.332-1.679 4.783-2.903 9.764-3.07 14.849-.268 7.091-.183 14.256 1.156 21.246.938 4.55 2.721 8.875 4.572 13.118 2.763 6.433 7.16 12 12.009 16.988 4.726 4.855 9.743 9.608 15.837 12.708 4.843 2.494 9.964 4.454 15.212 5.911 4.193 1.014 8.516 1.366 12.812 1.626 5.505.269 11.038-.139 16.473-1.028 4.422-.912 8.746-2.301 12.925-4.001 4.925-2.202 9.697-4.826 13.913-8.214 3.153-2.462 6.281-5.01 8.819-8.125 3.817-4.488 7.253-9.328 9.87-14.619 1.995-3.874 3.768-7.913 4.583-12.217 1.425-6.933 1.931-14.044 1.753-21.114-.175-6.052-1.479-12.029-3.532-17.713-1.393-4.024-3.118-7.941-5.365-11.566-2.307-3.845-4.85-7.582-8.018-10.777-3.191-3.347-6.554-6.579-10.451-9.102-4.267-2.89-8.795-5.409-13.606-7.274-3.944-1.592-8.002-3.025-12.252-3.501a86.56 86.56 0 0 0-12.674-.809zm1.268 12.418c5.151.037 10.28.883 15.24 2.242 3.642 1.166 7.036 2.987 10.377 4.821 4.55 2.531 8.631 5.843 12.327 9.493 2.844 2.999 5.078 6.515 7.187 10.051 2.549 4.364 4.247 9.167 5.666 13.999.421 1.49.72 3.03.975 4.465.421 2.406.858 5.049.975 7.593-.121 3.566-.796 7.093-1.497 10.584-1.058 4.387-2.527 8.69-4.463 12.768-2.289 4.26-5.248 8.132-8.438 11.754-1.903 2.077-3.939 4.035-6.121 5.818-.517.422-1.274 1.025-1.912 1.487-4.42 3.321-9.562 5.494-14.702 7.43-3.956 1.41-8.126 2.119-12.277 2.67-3.784.385-7.605.01-11.359-.506-4.311-.751-8.568-1.897-12.638-3.51-3.947-1.857-7.722-4.09-11.3-6.582-3.23-2.448-6.287-5.173-8.86-8.314-2.624-3.474-5.007-7.15-6.96-11.044-1.755-3.797-3.219-7.754-4.144-11.838-.797-4.117-1.365-8.317-1.215-12.519.317-4.955.968-9.947 2.666-14.638 1.415-3.987 2.985-7.991 5.524-11.415 4.127-5.752 8.95-11.072 14.628-15.33 5.41-3.935 11.751-6.349 18.128-8.213 3.957-1.097 8.111-1.233 12.193-1.266zm54.738 244.369c-3.105.025-6.323.321-9.08 1.877-5.165 2.634-9.542 6.841-12.203 12.009-2.136 3.796-2.245 8.255-2.477 12.491-.137 4.047-.198 8.151.604 12.138.753 2.825 2.267 5.383 3.807 7.846 1.948 3.014 4.74 5.42 7.784 7.28 3.892 2.277 8.489 2.905 12.933 2.823 3.589.025 7.291-.414 10.477-2.183 1.01-.504 2.023-1.206 3.01-1.615.689 1.792 2.637 2.648 4.447 2.742 2.579.152 5.166.037 7.748.073v-32h-26v13c3.505.052 7.019-.12 10.517.122.121.282-.512.906-.695 1.288-1.436 2.115-3.633 3.931-6.234 4.264-2.624.196-5.393-.162-7.625-1.653-1.812-1.038-3.519-2.533-4.063-4.631-.921-3.235-.869-6.655-.762-9.988.037-1.815.397-3.623 1.251-5.237.878-1.902 2.181-3.634 3.983-4.746a9.07 9.07 0 0 1 5.595-1.751c2.546-.01 5.323.781 6.848 2.965 1.209 1.707 2.086 3.902 4.167 4.734 2.27.877 4.763.554 7.142.633h6.553c-.492-2.263-.788-4.575-1.413-6.805-1.306-3.789-3.356-7.415-6.391-10.088-2.635-2.541-5.939-4.45-9.572-5.079-3.41-.621-6.903-.522-10.353-.509zM263 551.9V605h16.057l-.576-54.398-15.48-.809v2.107zm40 .019V605h14.988l.098-16.908 3.828 17.07 15.203-.738 3.672-16.777.293 17.354H356v-55h-19.465c-2.644 9.671-4.648 19.501-6.996 29.229l-6.512-28.672-20.027-.709v2.072zm91.436-.672l-16.101 45.993c-.463 1.589-1.163 3.152-1.355 4.794.1 1.469 1.531 2.323 2.856 2.553 3.487.662 7.058.327 10.584.412h1.863l3.32-10h13.793l3.32 10c4.082-.046 8.17.107 12.248-.114 1.438-.072 3.148-.599 3.614-2.121.446-1.61-.57-3.115-.97-4.625l-16.755-47.578-15.924-.711-.494 1.396zm169.535-1.293l-39.449.574-.578 54.471h44.299l-.863-13.463-27.379-.555V583h24v-14h-24v-5h26v-14.074l-2.029.029zm-160.652 25.729l1.742 5.316c-1.548-.009-3.102.041-4.645-.115.688-2.438 1.457-4.852 2.225-7.266l.678 2.064zm16.598 53.318c-2.721.095-5.521.528-7.955 1.805-2.845 1.673-5.469 3.868-7.166 6.737-1.496 2.309-2.68 4.85-3.128 7.583-.745 3.627-.888 7.398-.123 11.036.572 3.201 1.689 6.369 3.766 8.915 1.722 2.277 4.054 4.136 6.812 4.97 3.494 1.095 7.222 1.034 10.839.83 2.408-.158 4.839-.869 6.717-2.436 1.421 2.309 5.07 3.014 7.064 1.064.972-1.391.834-3.195 1.002-4.809.255-5.752-.161-11.506-.276-17.257.142-.779-.128-1.134-.929-.94-4.802.044-9.61-.1-14.409.104-1.676.083-3.688.493-4.465 2.176-.751 1.741-.867 4.122.67 5.486 1.816 1.504 4.327 1.589 6.578 1.646.92.001 1.839-.065 2.75-.197-.335 1.585-.992 3.194-2.146 4.354-2.289 1.427-5.075 1.829-7.731 1.838-1.607-.068-2.627-1.507-3.704-2.514-1.41-1.45-2.392-3.404-2.248-5.468-.006-3.313-.137-6.728 1.018-9.891.547-1.701 1.63-3.29 3.125-4.281 2.18-.718 4.552-.917 6.826-.61 2.069.349 2.983 2.47 4.501 3.663 1.782 1.6 4.247 2.593 6.65 2.063 1.671-.239 3.03-1.727 3.035-3.428.032-2.126-1.126-4.06-2.289-5.761-1.698-2.242-4.04-3.979-6.584-5.153-2.604-.986-5.421-1.472-8.201-1.523zm-180.934 0c-2.71.092-5.496.513-7.934 1.756-2.955 1.709-5.65 4.008-7.379 6.99-1.224 1.888-2.058 4.015-2.355 6.25-.884 5.09-.713 10.372.551 15.383.878 2.812 2.673 5.258 4.677 7.377 1.96 1.921 4.292 3.721 7.113 4.02 4.031.44 8.161.263 12.105-.713 2.9-.65 5.135-2.83 6.937-5.073 1.579-2.116 2.681-4.59 3.336-7.142.363-1.603.387-3.649-1.095-4.712-1.335-.925-3.067-1.029-4.643-.979-1.899.093-3.312 1.636-4.012 3.289-.861 2.033-1.951 4.121-3.784 5.433-1.377.82-3.04 1.424-4.64.921-1.464-.299-2.982-.785-3.951-1.998-1.382-1.363-2.081-3.218-2.429-5.092-.753-3.336-.558-6.844.274-10.144.656-1.696 1.701-3.29 3.066-4.498 1.8-1.265 4.141-1.086 6.231-1.015 1.339.006 2.543.721 3.353 1.76 1.755 2.164 4.19 4.19 7.119 4.183 1.755.058 3.815-.727 4.328-2.568.52-1.842-.521-3.65-1.35-5.232-1.561-2.762-4.128-4.842-6.895-6.318-2.685-1.212-5.685-1.808-8.622-1.878zm236.084.006c-2.798.196-5.636.792-8.124 2.124-2.774 1.642-4.941 4.282-5.955 7.348-.681 1.836-1.368 3.861-.692 5.804.85 2.955 2.33 5.967 4.976 7.693 1.672.78 3.524 1.086 5.293 1.586 3.639.948 7.4 1.587 10.847 3.142.789 1.067.797 2.754-.158 3.709-2.531 1.377-5.572 1.773-8.385 1.197-1.841-.804-2.944-2.578-3.979-4.206-1.228-1.677-2.964-3.443-5.197-3.4-2.249.058-4.549 1.884-4.459 4.266.019 3.035 1.263 6.018 3.379 8.192 1.808 2.108 4.356 3.471 7.066 4.004 4.682.916 9.582.612 14.169-.655 2.619-.797 4.901-2.603 6.438-4.85 1.147-2.044 1.57-4.43 1.706-6.747-.001-2.257-.349-4.614-1.483-6.596-1.73-2.469-4.434-4.073-7.264-4.984-3.278-1.216-6.678-1.979-10.013-2.969-.993-.391-2.192-.64-2.891-1.496-.155-1.508 1.29-2.714 2.681-2.929 1.767-.319 3.61-.335 5.382-.05 1.191.377 1.506 1.778 2.205 2.68 1.137 1.824 3.14 3.122 5.325 3.116 1.769.087 3.933-.338 4.757-2.108.758-1.694-.07-3.544-.658-5.16-1.042-2.927-3.435-5.163-6.085-6.666-2.629-1.287-5.564-1.957-8.484-2.053l-.395.008zm38.307.019c-4.703.243-9.442 2.08-12.67 5.59-3.502 3.661-5.497 8.655-5.644 13.707-.228 4.995.092 10.305 2.773 14.677 1.885 2.905 4.366 5.676 7.717 6.854 3.651 1.295 7.605 1.199 11.422 1.047 3.551-.183 7.265-1.179 9.824-3.785 3.506-3.324 5.915-7.846 6.403-12.679.344-3.528.359-7.125-.273-10.622-.926-4.68-3.546-9.226-7.757-11.658-3.12-1.855-6.729-2.8-10.325-3.112a13.92 13.92 0 0 0-1.47-.02zm41.088 0c-4.735.219-9.51 2.058-12.758 5.59-3.502 3.661-5.497 8.655-5.644 13.707-.228 4.995.092 10.305 2.773 14.677 1.886 2.905 4.367 5.677 7.719 6.854 3.674 1.307 7.651 1.181 11.492 1.07 2.912-.094 5.855-.855 8.221-2.611 2.437-1.826 4.439-4.23 5.919-6.885 2.331-4.367 2.477-9.471 2.221-14.303-.239-4.8-1.937-9.742-5.599-13.006-3.613-3.175-8.41-4.829-13.173-5.097-.391-.008-.781-.01-1.172.004zm-276.209.115c-3.487.042-7.116.74-9.947 2.898-2.466 1.75-4.671 3.974-5.922 6.764-2.676 5.357-3.573 11.63-2.258 17.49.667 2.667 1.45 5.37 2.901 7.727 1.66 2.209 3.855 4.027 6.298 5.312 3.897 1.878 8.347 1.644 12.557 1.647 2.4 0 4.962-.299 6.878-1.887 2.015-1.672 3.872-3.549 5.535-5.572 2.95-3.584 3.873-8.323 4.164-12.838.185-2.708.083-5.485-.873-8.056-.855-2.64-2.164-5.153-4.074-7.187-1.802-2.023-3.822-4.024-6.464-4.876-2.807-1.03-5.814-1.456-8.797-1.422zm330.52.738l-7.232.832-.449 20.508c-3.247-5.32-6.338-10.736-9.752-15.952-1.339-1.949-2.878-4.209-5.389-4.635-2.236-.273-4.501-.07-6.749-.133-.909-.291-.651.604-.688 1.2l-.337 28.011c.074 2.771-.025 5.599.678 8.301.307 1.224 1.351 2.039 2.492 2.449 1.296.602 2.809.678 4.12.077 1.168-.389 2.266-1.182 2.587-2.43.841-2.914.853-5.986 1.034-8.993.133-3.063.174-6.128.253-9.193 3.441 5.663 6.639 11.495 10.576 16.838 1.209 1.492 2.423 3.282 4.366 3.832 1.617.336 3.505.47 4.928-.503 1.206-1.072 1.14-2.853 1.352-4.332.593-7.978.396-15.988.439-23.982v-12.152l-2.229.258zM302 631.885l.224 31.124c.145 2.014.05 4.083.585 6.043.656 1.527 2.572 1.824 4.056 1.792 1.515.032 3.168-.607 3.82-2.067.931-2.142.871-4.544 1.059-6.833l.291-6.108c1.469 4.382 2.888 8.804 4.861 12.99.434 1.043 1.37 1.801 2.502 1.922 2.06.28 4.497-.016 5.863-1.762 1.765-2.237 2.597-5.026 3.613-7.648l2.037-5.906c.072 4.148.082 8.326.754 12.43.161 1.184.82 2.432 2.082 2.691 1.755.436 3.744.167 5.27-.824 1.644-1.286 1.661-3.572 1.79-5.474.187-6.135-.044-12.274-.101-18.41l-.238-15.345h-11.273l-7.674 23.227-7.701-23.123-11.82-.873v2.154zm67.65-1.75c-2.047.095-4.081.377-6.123.547l-.356 28.727c.074 2.873-.036 5.804.68 8.609.328 1.296 1.469 2.169 2.727 2.473 1.528.45 3.561.534 4.59-.92 1.159-1.721 1.153-3.906 1.384-5.899.383-5.08.484-10.176.696-15.265l10.212 16.79c1.358 1.941 2.721 4.204 5.075 5.028 1.842.502 3.78.186 5.665.275.557-.076 1.577.31 1.3-.6v-39.4h-8.924l-.812 20.752-9.974-16.39c-1.297-1.856-2.664-4.084-5.038-4.614a5.39 5.39 0 0 0-1.102-.113zm-22.15 3.332l-.321 26.899c.079 2.596-.012 5.258.718 7.774.468 1.658 2.231 2.355 3.748 2.73 1.611.335 3.271-.368 4.563-1.291 1.336-1.356 1.3-3.42 1.482-5.194.325-6.659.058-13.33-.011-19.992l-.211-12.893h-9.934l-.033 1.967zM279.453 639c1.664-.048 3.458.226 4.671 1.476 1.719 1.474 3.063 3.454 3.392 5.73.538 3.153.431 6.442-.374 9.539-.699 1.812-1.753 3.569-3.273 4.805-2.3 1.493-5.341 1.88-7.928.957-1.801-.808-3.335-2.184-4.521-3.745-1.107-1.833-1.059-4.073-1.257-6.14-.06-2.387-.087-4.886.808-7.139.967-1.774 2.177-3.603 4.021-4.555 1.383-.666 2.935-.923 4.461-.93zm235.576.021c1.431.127 2.94.222 4.24.875 1.651 1.336 2.842 3.247 3.184 5.356.921 3.894.611 8.03-.704 11.795-.687 1.594-1.786 3.095-3.263 4.032-2.15.869-4.588 1.212-6.832.483-1.323-.284-2.535-.965-3.388-2.025-2.097-2.179-2.906-5.224-3.235-8.149-.088-2.413.399-4.846 1.247-7.098.781-1.598 1.786-3.217 3.3-4.207 1.683-.792 3.594-1.158 5.451-1.062zm40.936 0c1.451.13 2.984.216 4.305.875 1.674 1.352 2.868 3.297 3.196 5.436.887 3.921.621 8.08-.658 11.883-.669 1.542-1.788 2.953-3.235 3.825-2.144.869-4.574 1.266-6.821.548-1.317-.287-2.56-.914-3.416-1.978-2.041-2.14-3.027-5.089-3.324-7.982.081-2.364.457-4.742 1.192-6.993.888-2.082 2.23-4.267 4.508-5.001 1.35-.521 2.815-.698 4.254-.613z" fill="#1a1a1a"/><path d="M417 146.248c-35.252-.214-41.876-.028-44 1.234-1.375.818-3.288 1.771-4.25 2.119s-1.75 1.03-1.75 1.516-.562.921-1.25.967-3.99 3.152-7.338 6.902-7.922 10.35-10.164 14.666-5.744 12.685-7.783 18.598L336.758 203h-10.379H316v-15.5c0-14.167-.172-15.672-2-17.5-1.918-1.918-3.334-2-34.672-2-28.998 0-32.877.185-34.5 1.654S243 173.059 243 186.686c0 11.446-.32 15.467-1.25 15.73-.687.195-5.122.784-9.854 1.309-5.314.59-10.466 1.856-13.475 3.313-2.679 1.297-6.831 4.319-9.227 6.715s-5.45 6.745-6.787 9.666l-2.432 5.313.262 123.885.262 123.885 2.334 4.5c1.284 2.475 4.209 6.44 6.5 8.811s5.662 5.24 7.49 6.377 5.203 2.658 7.5 3.379c3.392 1.065 39.667 1.274 193.176 1.121l189-.187 5.664-2.781c3.115-1.53 7.541-4.66 9.836-6.955s5.371-6.444 6.836-9.219l2.664-5.045v-124-124l-2.936-5.793c-1.615-3.187-4.832-7.543-7.15-9.68s-6.005-4.798-8.193-5.914-6.846-2.496-10.35-3.064c-3.779-.613-26.94-1.037-56.937-1.041L495.365 203l-1.809-5.75c-.994-3.162-3.635-10.025-5.869-15.25s-5.636-12.2-7.559-15.5-5.825-8.282-8.672-11.07-6.927-5.938-9.066-7c-3.628-1.8-6.69-1.946-45.391-2.182zM379.391 160l35.055.023c19.28.013 36.808.431 38.951.928s4.168 1.306 4.5 1.799 1.372 1.179 2.313 1.525 3.121 2.565 4.846 4.928 4.61 7.222 6.414 10.797 4.462 9.79 5.906 13.811 2.625 7.508 2.625 7.75-28.575.439-63.5.439c-55.105 0-63.5-.193-63.5-1.465 0-.806.718-3.618 1.596-6.25s3.346-8.313 5.486-12.625 5.34-9.666 7.109-11.9 5.238-5.343 7.709-6.91zM255 179h2.531 2.531l-.281 11.75c-.272 11.326-.363 11.762-2.531 12.07-2.227.316-2.25.195-2.25-11.75zm11 0h2.531 2.531l-.281 11.75c-.272 11.326-.363 11.762-2.531 12.07-2.227.316-2.25.195-2.25-11.75zm11 0h2.531 2.531l-.281 11.75c-.272 11.326-.363 11.762-2.531 12.07-2.227.316-2.25.195-2.25-11.75zm11 0h2.531 2.531l-.281 11.75c-.272 11.326-.363 11.762-2.531 12.07-2.227.316-2.25.195-2.25-11.75zm11 0h3 3v12 12h-3-3v-12zm119.061 38.242l184.492.258 4.975 2.521c4.032 2.044 5.493 3.543 7.723 7.928l2.75 5.41-.021 118.57c-.021 112.873-.11 118.764-1.857 122.611-1.01 2.223-3.363 5.329-5.229 6.902s-4.841 3.467-6.611 4.209c-2.66 1.115-35.337 1.348-188.635 1.348H230.229l-5.365-2.799c-3.951-2.061-6.022-3.971-7.863-7.25-2.265-4.033-2.532-5.744-2.846-18.201l-.346-13.75h79.471 79.473l5.578 2.467c3.068 1.357 9.31 3.434 13.873 4.615 4.825 1.249 12.95 2.364 19.418 2.666 6.433.3 14.606.01 19.387-.689 4.546-.665 11.074-2.076 14.508-3.137s8.302-2.838 10.818-3.951c4.452-1.969 6.433-2.023 73.621-1.984l69.045.041v-4.014V437h-62.146-62.148l8.471-7.924c4.658-4.358 10.834-11.344 13.723-15.523s6.777-10.897 8.641-14.93 4.333-10.78 5.488-14.992 2.427-11.726 2.824-16.697.368-13.178-.064-18.236-1.905-13.133-3.273-17.945-4.13-12.012-6.137-16-5.345-9.755-7.42-12.812-6.681-8.57-10.236-12.25L480.256 283h23.873H528v-3-3h-27.947-27.945l-6.039-3.539c-3.321-1.947-9.054-4.674-12.738-6.061s-9.202-3.202-12.264-4.035-9.841-1.872-15.066-2.311-13.885-.425-19.246.031c-6.795.578-13.004 1.918-20.5 4.424-5.914 1.977-13.995 5.369-17.957 7.541L361.094 277h-73.547H214l.006-20.75c.003-11.542.476-22.445 1.066-24.57.584-2.101 2.661-5.592 4.617-7.758 2.502-2.769 5.088-4.382 8.717-5.437 4.518-1.313 28.103-1.468 189.654-1.242zM516 232v14.5V261h28 28v-14.5V232h-28zm6 6h22.541 22.539l-.289 8.25-.291 8.25-22.25.27-22.25.27v-8.52zm-105.5 35.67c6.322-.054 12.873.574 17.811 1.705 4.296.984 10.881 3.056 14.635 4.604s9.438 4.485 12.631 6.527 7.785 5.351 10.205 7.354 7.135 7.016 10.479 11.141 7.993 11.55 10.332 16.5 4.998 11.7 5.906 15 1.893 11.625 2.188 18.5c.454 10.588.207 13.877-1.613 21.5-1.182 4.95-3.908 12.635-6.057 17.078s-5.963 10.813-8.475 14.154-7.232 8.544-10.492 11.563-9.282 7.578-13.381 10.133-11.214 5.954-15.811 7.553-11.282 3.381-14.857 3.957-10.1 1.008-14.5.961-11.093-.7-14.873-1.451-9.923-2.533-13.65-3.957-9.52-4.254-12.871-6.289-8.385-5.501-11.187-7.701-7.98-7.582-11.506-11.961-8.196-11.578-10.379-16-4.875-11.857-5.982-16.523-2.3-12.316-2.648-17c-.454-6.09-.157-11.045 1.039-17.396.92-4.885 2.854-11.86 4.299-15.5s4.457-9.719 6.693-13.506 7.142-10.191 10.9-14.232 10.104-9.535 14.102-12.209 10.678-6.281 14.844-8.016 10.868-3.884 14.896-4.777S411 273.717 416.5 273.67zM555 277v3 3h22.5H600v-3-3h-22.5zm-341 6h69.664 69.664l-6.449 6.75c-3.547 3.712-8.103 9.037-10.125 11.832s-5.705 9.32-8.184 14.5-5.532 13.243-6.783 17.918c-1.927 7.198-2.257 10.798-2.154 23.5.101 12.549.531 16.554 2.627 24.512 1.378 5.231 3.893 12.574 5.59 16.316s5.086 9.812 7.531 13.488 7.071 9.422 10.281 12.768 7.629 7.508 9.816 9.25l3.977 3.166h-72.727H214v-77zm203 11.725c-5.485 0-12.127.681-15.717 1.609-3.419.885-9.339 3.181-13.156 5.104s-9.634 5.735-12.926 8.475c-3.298 2.745-8.263 8.388-11.061 12.57-3.1 4.635-6.101 10.786-7.711 15.803-2.152 6.708-2.639 10.141-2.65 18.715-.009 6.716.601 12.842 1.689 17 .936 3.575 3.326 9.65 5.311 13.5 2.474 4.8 6.168 9.558 11.756 15.137 6.209 6.199 9.966 9.009 15.781 11.807 4.198 2.019 10.457 4.286 13.908 5.035s9.875 1.382 14.275 1.406 10.7-.544 14-1.264 8.475-2.359 11.5-3.646 7.525-3.705 10-5.373 6.487-4.847 8.914-7.066 6.589-7.355 9.248-11.412 5.787-10.357 6.949-14c1.303-4.083 2.311-10.511 2.627-16.758.377-7.446.064-12.156-1.182-17.754-.932-4.19-3.222-10.655-5.088-14.365s-5.187-8.905-7.381-11.545-6.149-6.61-8.789-8.822-7.851-5.577-11.582-7.479-9.581-4.182-13-5.066c-3.59-.929-10.231-1.609-15.717-1.609zm-3.506 8.5c2.488-.116 5.079-.101 7.305.063 4.236.311 10.229 1.453 13.318 2.539s8.602 3.859 12.252 6.164 8.68 6.514 11.18 9.352 6.105 8.308 8.012 12.158 4.127 10.15 4.936 14 1.469 8.575 1.469 10.5-.665 6.65-1.477 10.5-2.879 9.857-4.594 13.35c-1.74 3.544-5.946 9.347-9.516 13.131-4.207 4.459-8.703 7.989-13.137 10.311-3.708 1.941-9.217 4.22-12.242 5.064s-7.975 1.763-11 2.041-8.65-.099-12.5-.838-9.142-2.279-11.758-3.42-7.458-3.909-10.762-6.152-7.84-6.397-10.08-9.23-5.388-7.758-6.996-10.943-3.587-8.61-4.398-12.053-1.477-8.96-1.477-12.26.679-8.882 1.51-12.406 2.948-9.149 4.705-12.5c1.785-3.404 6.297-9.226 10.225-13.193 5.175-5.226 9.011-8.044 14.531-10.674 4.125-1.965 10.335-4.12 13.799-4.789 1.82-.352 4.207-.597 6.695-.713zM474.422 551.5c-7.247 0-8.583.312-12.975 3.027-3.002 1.856-6.044 4.885-7.867 7.834-2.567 4.152-3.029 6.008-3.393 13.605-.249 5.207.057 10.241.748 12.336.642 1.947 2.446 5.304 4.008 7.461s4.802 4.892 7.199 6.078c3.126 1.547 6.195 2.153 10.857 2.145 5.019-.009 7.459-.558 10.709-2.416 4.051-2.316 4.23-2.335 4.816-.488.464 1.463 1.544 1.918 4.543 1.918H497v-14-14h-11-11v4.5 4.5h5.5c4.09 0 5.5.365 5.5 1.424 0 .783-1.152 2.791-2.561 4.465-1.517 1.802-3.935 3.301-5.934 3.676-1.856.348-4.913.126-6.793-.494s-4.46-2.237-5.732-3.592c-1.654-1.761-2.444-4.02-2.768-7.924-.249-3.004-.156-7.044.207-8.979s1.795-4.867 3.184-6.518 4.071-3.427 5.961-3.949c2.2-.608 4.721-.593 7.01.039 2.44.674 4.215 2.074 5.598 4.418 1.919 3.252 2.318 3.434 7.553 3.434h5.525l-.635-3.25c-.349-1.788-1.868-5.009-3.375-7.16s-4.54-4.851-6.74-6c-3.095-1.616-5.828-2.09-12.078-2.09zM265 551.9v25.549V603h6.018 6.018l-.268-25.25-.268-25.25-5.75-.301zm131.32.016l-8.66 24.445-8.66 25.543c0 .671 2.295 1.096 5.92 1.096h5.92l1.66-5 1.66-5h8.34 8.34l1.66 5 1.66 5h6.488c5.728 0 6.42-.205 5.918-1.75-.313-.962-4.299-12.325-8.859-25.25l-8.291-23.5-6.549-.293zm-91.32.004v25.539V603h5.5 5.5l.094-16.25.096-16.25 3.654 16.291 3.654 16.291 5.996-.291 5.996-.291 3.504-16 3.506-16 .275 16.25.273 16.25h5.477H354v-25.5V552h-7.961-7.963l-.986 3.75c-.543 2.063-2.462 10.275-4.264 18.25s-3.418 13.825-3.592 13l-4.066-18-3.75-16.5-8.209-.291zm259 .035l-18.75.273-18.75.271-.268 25.25-.268 25.25h20.072 20.072l-.305-4.75-.305-4.75-13.75-.277-13.75-.279v-5.971V581h12 12v-5-5h-12-12v-4.5-4.5h13 13v-5.021zm-161.385 15.166l2.604 7.939L407.82 583h-4.91c-2.701 0-4.903-.337-4.896-.75s1.045-3.985 2.307-7.939zM239.049 631c-2.282 0-5.362.632-6.848 1.404s-3.684 2.46-4.885 3.75-2.704 3.696-3.34 5.346-1.187 5.477-1.225 8.504.479 7.166 1.15 9.199 2.783 5.069 4.693 6.746c3.049 2.677 4.209 3.051 9.488 3.051 3.347 0 7.281-.655 8.869-1.477 1.57-.812 3.757-2.949 4.859-4.75s2.158-4.398 2.346-5.773c.284-2.079-.116-2.553-2.369-2.812-2.268-.262-2.945.248-4.145 3.119-.789 1.888-2.481 4.166-3.762 5.063S240.551 664 239.324 664s-3.354-.512-4.729-1.139-3.195-2.606-4.047-4.4-1.549-5.303-1.549-7.797.433-5.67.961-7.059 1.878-3.444 3-4.566c1.437-1.437 3.343-2.039 6.449-2.039 3.674 0 4.833.502 6.936 3 1.596 1.897 3.468 3 5.09 3 1.681 0 2.564-.55 2.564-1.596 0-.878-.891-2.847-1.98-4.377s-3.519-3.511-5.4-4.404-5.289-1.623-7.57-1.623zm180.934 0c-2.245 0-5.296.632-6.781 1.404s-3.693 2.466-4.904 3.764-2.899 4.027-3.75 6.064-1.538 6.081-1.525 8.986c.013 3.029.84 7.084 1.941 9.51 1.108 2.442 3.318 5.084 5.229 6.248 2.362 1.44 5.057 2.017 9.424 2.02 4.676.003 6.735-.483 8.75-2.068 2.038-1.603 2.635-1.741 2.635-.607 0 .806.751 1.754 1.668 2.105s2.059.247 2.539-.232.741-5.107.582-10.283l-.289-9.41h-8c-7.497 0-8.019.139-8.314 2.215-.238 1.673.314 2.373 2.262 2.861 1.418.356 3.964.444 5.658.195 2.973-.436 3.059-.345 2.463 2.635-.34 1.698-1.455 3.926-2.48 4.951-1.035 1.035-3.892 2.091-6.428 2.377-4.091.461-4.881.199-7.613-2.533-2.059-2.059-3.093-4.128-3.191-6.375-.08-1.83-.032-4.901.105-6.826s.882-4.725 1.654-6.221 2.272-3.184 3.33-3.75 3.713-1.029 5.9-1.029c3.191 0 4.474.593 6.5 3 1.596 1.897 3.468 3 5.09 3 1.836 0 2.564-.53 2.564-1.865 0-1.026-.976-3.105-2.168-4.621s-3.654-3.376-5.469-4.135-5.136-1.379-7.381-1.379zm55.518 0c-2.034 0-5.193.711-7.021 1.578-1.894.899-4.001 3.006-4.9 4.9-.868 1.828-1.578 4.066-1.578 4.973s.658 2.921 1.463 4.477 2.183 3.106 3.063 3.443 4.579 1.304 8.219 2.148 7.212 2.029 7.938 2.631S484 657.26 484 658.5s-.606 2.757-1.346 3.371-2.748 1.397-4.463 1.74-4.283.332-5.707-.025c-1.477-.371-3.469-2.141-4.637-4.119-1.212-2.055-2.833-3.467-3.979-3.467-1.063 0-2.193.683-2.514 1.518s-.005 2.914.701 4.619 2.669 3.946 4.363 4.979c2.084 1.271 4.973 1.878 8.93 1.881 3.217.002 7.317-.693 9.111-1.545s3.774-2.673 4.4-4.047 1.139-3.857 1.139-5.518-.463-3.883-1.029-4.941-2.304-2.583-3.861-3.389-5.805-2.212-9.439-3.125c-4.797-1.205-6.777-2.196-7.229-3.617-.379-1.194.059-2.711 1.123-3.887 1.219-1.347 3.07-1.928 6.137-1.928 3.831 0 4.609.382 6.096 2.994 1.242 2.182 2.448 2.995 4.453 3 1.82.004 2.75-.518 2.75-1.543 0-.852-.654-2.817-1.455-4.365s-3.007-3.552-4.902-4.451S477.534 631 475.5 631zm38.434.016c-2.725.01-5.947.877-8.359 2.25-2.447 1.392-4.801 3.895-6.25 6.643-1.73 3.28-2.324 6.039-2.324 10.789 0 4.451.618 7.592 2.041 10.381 1.122 2.2 3.485 4.881 5.25 5.957 2.317 1.413 5.017 1.957 9.709 1.957s7.392-.544 9.709-1.957c1.765-1.076 4.224-3.887 5.463-6.246 1.667-3.173 2.254-5.981 2.254-10.789 0-4.744-.589-7.62-2.18-10.645-1.524-2.898-3.488-4.778-6.529-6.25-2.448-1.185-6.287-2.099-8.783-2.09zm41.105 0c-2.833.01-6.015.856-8.465 2.25s-4.801 3.895-6.25 6.643c-1.73 3.28-2.324 6.039-2.324 10.789 0 4.451.618 7.592 2.041 10.381 1.122 2.2 3.485 4.881 5.25 5.957 2.328 1.42 5.022 1.958 9.811 1.961 5.203.003 7.305-.473 9.914-2.246 1.821-1.237 4.25-4.05 5.396-6.25 1.49-2.857 2.084-5.857 2.084-10.5 0-4.596-.601-7.672-2.055-10.5-1.4-2.724-3.462-4.718-6.461-6.25-2.681-1.37-6.179-2.244-8.941-2.234zm-274.277.215c-3.397-.282-6.619.101-8.91 1.059-1.974.825-4.77 3.049-6.215 4.943s-3.073 5.799-3.619 8.678c-.671 3.539-.655 6.75.051 9.912.574 2.572 1.717 5.711 2.541 6.975s2.938 3.174 4.695 4.246c2.348 1.432 5.02 1.95 10.076 1.953 6.766.004 6.954-.067 11.121-4.246 3.266-3.275 4.496-5.468 5.369-9.561.623-2.92.845-7.107.494-9.305s-1.59-5.391-2.752-7.098-3.333-4.006-4.822-5.109c-1.616-1.197-4.855-2.184-8.029-2.447zm328.238.637l-2.75.316-2.75.316-.281 12.84-.279 12.84-7.721-12.84c-7.537-12.537-7.801-12.84-11.219-12.84h-3.5l-.273 17.426c-.209 13.272.029 17.618 1 18.234.701.445 1.723.809 2.273.809s1.547-.348 2.217-.773c.821-.522 1.309-4.758 1.5-13.016l.283-12.244 7.5 12.572c5.127 8.595 8.194 12.748 9.693 13.127 1.206.305 2.669.26 3.25-.1.679-.42 1.057-7.088 1.057-18.66zm-305 .018v17.891c0 9.84.319 18.21.709 18.6s1.627.579 2.75.418c1.891-.271 2.078-1.168 2.541-12.168l.5-11.873 3.811 11.602c2.096 6.381 4.259 11.88 4.807 12.219s1.991.366 3.207.061c1.809-.454 2.963-2.786 6.357-12.844l4.146-12.289.086 12.191c.05 7.024.514 12.455 1.096 12.814.555.343 1.914.336 3.021-.016 1.932-.613 2.004-1.354 1.742-18.314L338.5 632.5h-3.93-3.93l-4.557 13.789-4.557 13.791-4.592-13.791-4.592-13.789-4.172-.307zm64.662.309l-3.162.307-.273 17.426c-.209 13.266.03 17.622 1 18.248.701.453 1.948.706 2.773.563 1.216-.211 1.595-2.803 2-13.703l.5-13.445 8.049 13.457c7.427 12.418 8.276 13.455 11 13.455h2.951v-18-18H391h-2.5l-.5 12.77-.5 12.768-7.838-13.074c-7.612-12.699-7.928-13.068-11-12.77zM349.5 633.5l-.275 16.926c-.209 12.871.03 17.119 1 17.734.701.445 1.725.809 2.275.809s1.574-.364 2.275-.809c.97-.615 1.209-4.863 1-17.734L355.5 633.5h-3zm-70.053 3.5c3.322 0 4.758.605 7.008 2.953 2.091 2.183 2.953 4.239 3.303 7.883.261 2.712-.061 6.551-.715 8.531s-2.341 4.509-3.75 5.617c-1.561 1.228-4.067 2.016-6.412 2.016-2.814 0-4.703-.762-7.02-2.832-2.683-2.398-3.241-3.7-3.639-8.494-.279-3.362.042-6.899.789-8.703.692-1.671 2.383-3.923 3.758-5.004 1.579-1.242 4.038-1.967 6.678-1.967zm234.842 0c2.114 0 4.707.463 5.766 1.029s2.605 2.345 3.436 3.951 1.51 5.177 1.51 7.936-.737 6.563-1.639 8.453-2.722 3.93-4.047 4.533-3.625 1.09-5.111 1.082-3.828-.577-5.203-1.264-3.286-2.817-4.248-4.734-1.749-5.187-1.75-7.268.626-5.286 1.393-7.121 2.442-4.07 3.723-4.967 4.058-1.631 6.172-1.631zm40.912 0c2.162 0 4.795.463 5.854 1.029s2.605 2.345 3.436 3.951 1.51 5.237 1.51 8.068-.697 6.618-1.549 8.412-2.673 3.774-4.047 4.4-3.715 1.131-5.201 1.123-3.828-.577-5.203-1.264-3.286-2.817-4.248-4.734-1.746-4.836-1.744-6.486.465-4.668 1.031-6.705 2.201-4.625 3.631-5.75c1.618-1.273 4.085-2.045 6.531-2.045z" fill="gray"/></svg>